<?xml version="1.0" encoding="UTF-8"?>
<svg width="16px" height="36px" viewBox="0 0 16 36" version="1.1" xmlns="http://www.w3.org/2000/svg"
     xmlns:xlink="http://www.w3.org/1999/xlink">
    <!-- Generator: Sketch 52.6 (67491) - http://www.bohemiancoding.com/sketch -->
    <title>more/nomal</title>
    <desc>Created with Sketch.</desc>
    <g id="组件" stroke="none" stroke-width="1" fill="none" fill-rule="evenodd">
        <g id="投票导航" transform="translate(-1248.000000, -10.000000)" fill="#F6C94A" fill-rule="nonzero">
            <g id="more/nomal" transform="translate(1248.000000, 10.000000)">
                <path d="M3,1 C1.8954305,1 1,1.8954305 1,3 L1,33 C1,34.1045695 1.8954305,35 3,35 L13,35 C14.1045695,35 15,34.1045695 15,33 L15,3 C15,1.8954305 14.1045695,1 13,1 L3,1 Z M3,0 L13,0 C14.6568542,0 16,1.34314575 16,3 L16,33 C16,34.6568542 14.6568542,36 13,36 L3,36 C1.34314575,36 0,34.6568542 0,33 L0,3 C0,1.34314575 1.34314575,0 3,0 Z M10.2928932,16.2928932 C10.6834175,15.9023689 11.3165825,15.9023689 11.7071068,16.2928932 C12.0976311,16.6834175 12.0976311,17.3165825 11.7071068,17.7071068 L8.70710678,20.7071068 C8.31658249,21.0976311 7.68341751,21.0976311 7.29289322,20.7071068 L4.29289322,17.7071068 C3.90236893,17.3165825 3.90236893,16.6834175 4.29289322,16.2928932 C4.68341751,15.9023689 5.31658249,15.9023689 5.70710678,16.2928932 L8,18.5857864 L10.2928932,16.2928932 Z"
                      id="合并形状"></path>
            </g>
        </g>
    </g>
</svg>