<?xml version="1.0" encoding="UTF-8"?>
<svg width="16px" height="36px" viewBox="0 0 16 36" version="1.1" xmlns="http://www.w3.org/2000/svg"
     xmlns:xlink="http://www.w3.org/1999/xlink">
    <!-- Generator: Sketch 52.6 (67491) - http://www.bohemiancoding.com/sketch -->
    <title>合并形状</title>
    <desc>Created with Sketch.</desc>
    <g id="页面-1" stroke="none" stroke-width="1" fill="none" fill-rule="evenodd">
        <g id="03-02投票选举2" transform="translate(-1248.000000, -66.000000)" fill="#F6C94A">
            <path d="M1251,66 L1261,66 C1262.65685,66 1264,67.3431458 1264,69 L1264,99 C1264,100.656854 1262.65685,102 1261,102 L1251,102 C1249.34315,102 1248,100.656854 1248,99 L1248,69 C1248,67.3431458 1249.34315,66 1251,66 Z M1258.29289,86.7071068 C1258.68342,87.0976311 1259.31658,87.0976311 1259.70711,86.7071068 C1260.09763,86.3165825 1260.09763,85.6834175 1259.70711,85.2928932 L1256.70711,82.2928932 C1256.31658,81.9023689 1255.68342,81.9023689 1255.29289,82.2928932 L1252.29289,85.2928932 C1251.90237,85.6834175 1251.90237,86.3165825 1252.29289,86.7071068 C1252.68342,87.0976311 1253.31658,87.0976311 1253.70711,86.7071068 L1256,84.4142136 L1258.29289,86.7071068 Z"
                  id="合并形状"></path>
        </g>
    </g>
</svg>