<?xml version="1.0" encoding="UTF-8"?>
<svg width="36px" height="36px" viewBox="0 0 36 36" version="1.1" xmlns="http://www.w3.org/2000/svg"
     xmlns:xlink="http://www.w3.org/1999/xlink">
    <!-- Generator: Sketch 61.2 (89653) - https://sketch.com -->
    <title>形状结合</title>
    <desc>Created with Sketch.</desc>
    <g id="页面-1" stroke="none" stroke-width="1" fill="none" fill-rule="evenodd">
        <g id="01-04资产样式2" transform="translate(-905.000000, -209.000000)" fill="#3F3F3F">
            <g id="分组-copy-4" transform="translate(657.000000, 56.000000)">
                <g id="ACCOUNT-Copy-6">
                    <g id="分组-5" transform="translate(16.000000, 107.000000)">
                        <path d="M250,46 C259.941125,46 268,54.0588745 268,64 C268,73.9411255 259.941125,82 250,82 C240.058875,82 232,73.9411255 232,64 C232,54.0588745 240.058875,46 250,46 Z M250,47 C240.611159,47 233,54.6111593 233,64 C233,73.3888407 240.611159,81 250,81 C259.388841,81 267,73.3888407 267,64 C267,54.6111593 259.388841,47 250,47 Z M253,56 L253,65 L259,65 L250,72 L241,65 L247,65 L247,56 L253,56 Z"
                              id="形状结合"></path>
                    </g>
                </g>
            </g>
        </g>
    </g>
</svg>
