<?xml version="1.0" encoding="UTF-8"?>
<svg width="36px" height="36px" viewBox="0 0 36 36" version="1.1" xmlns="http://www.w3.org/2000/svg"
     xmlns:xlink="http://www.w3.org/1999/xlink">
    <!-- Generator: Sketch 61.2 (89653) - https://sketch.com -->
    <title>形状结合</title>
    <desc>Created with Sketch.</desc>
    <g id="页面-1" stroke="none" stroke-width="1" fill="none" fill-rule="evenodd">
        <g id="01-04资产样式2" transform="translate(-905.000000, -163.000000)" fill="#F6C94A" fill-rule="nonzero">
            <g id="分组-copy-4" transform="translate(657.000000, 56.000000)">
                <g id="ACCOUNT-Copy-6">
                    <g id="分组-5" transform="translate(16.000000, 107.000000)">
                        <path d="M250,0 C259.941125,0 268,8.0588745 268,18 C268,27.9411255 259.941125,36 250,36 C240.058875,36 232,27.9411255 232,18 C232,8.0588745 240.058875,0 250,0 Z M250,1 C240.611159,1 233,8.61115925 233,18 C233,27.3888407 240.611159,35 250,35 C259.388841,35 267,27.3888407 267,18 C267,8.61115925 259.388841,1 250,1 Z M253,10 L253,19 L259,19 L250,26 L241,19 L247,19 L247,10 L253,10 Z"
                              id="形状结合"></path>
                    </g>
                </g>
            </g>
        </g>
    </g>
</svg>
