<?xml version="1.0" encoding="UTF-8"?>
<svg width="14px" height="14px" viewBox="0 0 14 14" version="1.1" xmlns="http://www.w3.org/2000/svg"
     xmlns:xlink="http://www.w3.org/1999/xlink">
    <!-- Generator: Sketch 52.6 (67491) - http://www.bohemiancoding.com/sketch -->
    <title>Check Box / Labelled</title>
    <desc>Created with Sketch.</desc>
    <g id="Check-Box-/-Labelled" stroke="none" stroke-width="1" fill="none" fill-rule="evenodd">
        <path d="M2,0 L12,0 C13.1045695,-2.02906125e-16 14,0.8954305 14,2 L14,12 C14,13.1045695 13.1045695,14 12,14 L2,14 C0.8954305,14 1.3527075e-16,13.1045695 0,12 L0,2 C-1.3527075e-16,0.8954305 0.8954305,2.02906125e-16 2,0 Z M5.53553391,8.77817459 L4.12132034,7.36396103 C3.73079605,6.97343674 3.09763107,6.97343674 2.70710678,7.36396103 C2.31658249,7.75448532 2.31658249,8.3876503 2.70710678,8.77817459 L4.82842712,10.8994949 C5.21895142,11.2900192 5.8521164,11.2900192 6.24264069,10.8994949 L11.8994949,5.24264069 C12.2900192,4.8521164 12.2900192,4.21895142 11.8994949,3.82842712 C11.5089706,3.43790283 10.8758057,3.43790283 10.4852814,3.82842712 L5.53553391,8.77817459 Z"
              fill="#F6C94A"></path>
    </g>
</svg>