<?xml version="1.0" encoding="UTF-8"?>
<svg width="14px" height="14px" viewBox="0 0 14 14" version="1.1" xmlns="http://www.w3.org/2000/svg"
     xmlns:xlink="http://www.w3.org/1999/xlink">
    <!-- Generator: Sketch 52.6 (67491) - http://www.bohemiancoding.com/sketch -->
    <title>Check Box / Unselected</title>
    <desc>Created with Sketch.</desc>
    <g id="Check-Box-/-Unselected" stroke="none" stroke-width="1" fill="none" fill-rule="evenodd">
        <path d="M2,0 L12,0 C13.1045695,-2.02906125e-16 14,0.8954305 14,2 L14,12 C14,13.1045695 13.1045695,14 12,14 L2,14 C0.8954305,14 1.3527075e-16,13.1045695 0,12 L0,2 C-1.3527075e-16,0.8954305 0.8954305,2.02906125e-16 2,0 Z M3,2 C2.44771525,2 2,2.44771525 2,3 L2,11 C2,11.5522847 2.44771525,12 3,12 L11,12 C11.5522847,12 12,11.5522847 12,11 L12,3 C12,2.44771525 11.5522847,2 11,2 L3,2 Z"
              fill="#C7CACC"></path>
    </g>
</svg>