<?xml version="1.0" encoding="UTF-8"?>
<svg width="120px" height="120px" viewBox="0 0 120 120" version="1.1" xmlns="http://www.w3.org/2000/svg" xmlns:xlink="http://www.w3.org/1999/xlink">
    <!-- Generator: Sketch 52.6 (67491) - http://www.bohemiancoding.com/sketch -->
    <title>ChainX1</title>
    <desc>Created with Sketch.</desc>
    <defs>
        <polygon id="path-1" points="0.0004 0.37215 60.0019 0.37215 60.0019 45 0.0004 45"></polygon>
    </defs>
    <g id="Page-1" stroke="none" stroke-width="1" fill="none" fill-rule="evenodd">
        <g id="ChainX" transform="translate(-76.000000, -254.000000)">
            <g id="ChainX1" transform="translate(76.000000, 254.000000)">
                <path d="M68.876,34.5732 L49.843,15.5322 C49.463,15.1532 48.849,15.1532 48.47,15.5322 L40.92,23.0842 C40.541,23.4642 40.541,24.0782 40.92,24.4572 L59.767,43.3112 C64.374,47.9212 64.496,55.5862 59.812,60.1172 C55.26,64.5192 47.977,64.4732 43.482,59.9772 L16.029,32.5132 C11.535,28.0172 11.488,20.7312 15.89,16.1772 C20.418,11.4912 28.081,11.6142 32.688,16.2222 L35.43,18.9652 C35.809,19.3442 36.423,19.3442 36.802,18.9652 L44.352,11.4122 C44.73,11.0332 44.73,10.4182 44.352,10.0392 L41.424,7.1102 C31.947,-2.3698 16.583,-2.3698 7.107,7.1102 C-2.369,16.5902 -2.369,31.9592 7.107,41.4392 L34.561,68.9032 C44.036,78.3832 59.4,78.3832 68.876,68.9032 C78.353,59.4232 78.353,44.0532 68.876,34.5732" id="Fill-1" fill="#EA754B"></path>
                <path d="M112.8936,7.1113 C103.4156,-2.3697 88.0506,-2.3697 78.5786,7.1113 L59.9996,25.6963 L68.8766,34.5753 C68.8906,34.5903 68.9066,34.6053 68.9196,34.6193 L87.4976,16.0343 C92.0396,11.4953 99.4316,11.4953 103.9686,16.0343 C108.5116,20.5793 108.5116,27.9733 103.9686,32.5173 L101.0446,35.4413 C100.6656,35.8203 100.6656,36.4353 101.0446,36.8153 L108.5946,44.3673 C108.9736,44.7473 109.5886,44.7473 109.9676,44.3673 L112.8936,41.4403 C122.3676,31.9593 122.3676,16.5933 112.8936,7.1113" id="Fill-3" fill="#34C69A"></path>
                <path d="M96.9268,40.9341 C96.5478,40.5551 95.9328,40.5551 95.5538,40.9341 L76.5158,59.9761 C75.6608,60.8311 74.7048,61.5251 73.6868,62.0591 C69.2938,64.3611 63.7328,63.6661 60.0438,59.9761 C60.0298,59.9621 60.0098,59.9431 59.9998,59.9281 C55.5218,55.3981 55.5218,48.0721 59.9998,43.5431 L51.0808,34.6201 C43.6848,42.0471 42.0978,53.0781 46.3148,62.0591 C47.4748,64.5351 49.0808,66.8611 51.1238,68.9051 C53.7208,71.5021 56.7638,73.3861 59.9998,74.5601 C62.6698,75.5271 65.4748,76.0121 68.2798,76.0121 C74.4908,76.0121 80.6978,73.6431 85.4408,68.9051 L104.4778,49.8601 C104.8568,49.4811 104.8568,48.8661 104.4778,48.4871 L96.9268,40.9341 Z" id="Fill-5" fill="#34C69A"></path>
                <path d="M112.8936,78.6055 L94.3176,60.0225 L85.3956,68.9485 L103.9706,87.5315 C108.4686,92.0305 108.5106,99.3175 104.1076,103.8705 C99.5796,108.5525 91.9176,108.4295 87.3126,103.8225 L84.5716,101.0795 C84.1916,100.7005 83.5776,100.7005 83.1986,101.0795 L75.6486,108.6325 C75.2696,109.0115 75.2696,109.6265 75.6486,110.0055 L78.2736,112.6315 C87.7806,122.1405 103.5806,122.3865 113.0186,112.8095 C117.6736,108.0845 119.9996,101.9255 119.9996,95.7735 C119.9996,89.5605 117.6316,83.3465 112.8936,78.6055" id="Fill-7" fill="#F6C94A"></path>
                <path d="M79.0801,96.96 C79.4601,96.581 79.4601,95.966 79.0801,95.587 L60.0461,76.546 C59.1911,75.691 58.4951,74.733 57.9641,73.713 C55.6681,69.323 56.3571,63.758 60.0461,60.067 L60.0911,60.023 C64.6211,55.54 71.9441,55.54 76.4741,60.023 L85.3951,51.097 C77.9631,43.703 66.9371,42.113 57.9641,46.333 C55.4851,47.493 53.1701,49.096 51.1241,51.142 C48.5261,53.741 46.6421,56.779 45.4731,60.023 C44.5011,62.69 44.0171,65.502 44.0171,68.31 C44.0171,74.523 46.3891,80.734 51.1241,85.471 L70.1581,104.513 C70.5371,104.892 71.1521,104.892 71.5311,104.513 L79.0801,96.96 Z" id="Fill-9" fill="#F6C94A"></path>
                <path d="M74.5605,60.0708 C74.3085,59.3528 74.0165,58.6438 73.6875,57.9448 C72.5325,55.4638 70.9255,53.1428 68.8775,51.0988 C66.8445,49.0598 64.5345,47.4578 62.0695,46.2978 C61.3945,45.9768 60.7055,45.6958 60.0115,45.4438 C51.4455,42.3358 41.4925,44.2048 34.6105,51.0558 L43.5305,59.9788 C44.3745,59.1438 45.3165,58.4638 46.3165,57.9398 C50.7125,55.6438 56.2745,56.3378 59.9575,60.0228 L60.0015,60.0658 C63.6745,63.7798 64.3395,69.3728 61.9865,73.7618 C61.4725,74.7328 60.8125,75.6408 60.0015,76.4568 L68.9265,85.3848 C75.7405,78.5288 77.6235,68.6158 74.5605,60.0708" id="Fill-11" fill="#46AEE2"></path>
                <path d="M24.4277,79.0894 L34.6107,68.9014 L25.6907,59.9794 L15.5067,70.1644 C15.1267,70.5434 15.1267,71.1584 15.5057,71.5374 L23.0547,79.0894 C23.4337,79.4684 24.0487,79.4684 24.4277,79.0894" id="Fill-13" fill="#46AEE2"></path>
                <g id="Group-17" transform="translate(0.000000, 75.000000)">
                    <mask id="mask-2" fill="white">
                        <use xlink:href="#path-1"></use>
                    </mask>
                    <g id="Clip-16"></g>
                    <path d="M32.5049,28.9644 C27.9619,33.5084 20.5699,33.5084 16.0329,28.9644 C11.4909,24.4204 11.4909,17.0304 16.0329,12.4864 L18.9369,9.5824 C19.3159,9.2024 19.3159,8.5884 18.9369,8.2084 L11.3879,0.6564 C11.0089,0.2774 10.3949,0.2774 10.0149,0.6564 L7.1089,3.5634 C-2.3691,13.0454 -2.3691,28.4104 7.1089,37.8924 C11.8499,42.6314 18.0569,45.0054 24.2639,45.0004 C30.4759,45.0004 36.6879,42.6314 41.4289,37.8924 L60.0019,19.3074 L51.0819,10.3844 L32.5049,28.9644 Z" id="Fill-15" fill="#46AEE2" mask="url(#mask-2)"></path>
                </g>
            </g>
        </g>
    </g>
</svg>