<?xml version="1.0" encoding="UTF-8"?>
<svg width="16px" height="14px" viewBox="0 0 16 14" version="1.1" xmlns="http://www.w3.org/2000/svg"
     xmlns:xlink="http://www.w3.org/1999/xlink">
    <!-- Generator: Sketch 60 (88103) - https://sketch.com -->
    <title>形状</title>
    <desc>Created with Sketch.</desc>
    <g id="组件" stroke="none" stroke-width="1" fill="none" fill-rule="evenodd">
        <g id="高兴节点" transform="translate(-2.000000, -3.000000)" fill="#000000" fill-rule="nonzero">
            <path d="M3.4,17 L16.6,17 C17.37,17 18,16.325 18,15.5 C18,14.675 17.37,14 16.6,14 L3.4,14 C2.63,14 2,14.675 2,15.5 C2,16.325 2.63,17 3.4,17 Z M3.4,14.75 L4.8,14.75 L4.8,16.25 L3.4,16.25 L3.4,14.75 Z M2,4.5 C2,5.325 2.63,6 3.4,6 L16.6,6 C17.37,6 18,5.325 18,4.5 C18,3.675 17.37,3 16.6,3 L3.4,3 C2.63,3 2,3.675 2,4.5 Z M4.8,5.25 L3.4,5.25 L3.4,3.75 L4.8,3.75 L4.8,5.25 Z M3.4,11.5 L16.6,11.5 C17.37,11.5 18,10.825 18,10 C18,9.175 17.37,8.5 16.6,8.5 L3.4,8.5 C2.63,8.5 2,9.175 2,10 C2,10.825 2.63,11.5 3.4,11.5 Z M3.4,9.25 L4.8,9.25 L4.8,10.75 L3.4,10.75 L3.4,9.25 Z"
                  id="形状"></path>
        </g>
    </g>
</svg>