<?xml version="1.0" encoding="UTF-8"?>
<svg width="2000px" height="2000px" viewBox="0 0 2000 2000" version="1.1" xmlns="http://www.w3.org/2000/svg"
     xmlns:xlink="http://www.w3.org/1999/xlink">
    <!-- Generator: Sketch 52.6 (67491) - http://www.bohemiancoding.com/sketch -->
    <title>BTC_Logo</title>
    <desc>Created with Sketch.</desc>
    <g id="页面-1" stroke="none" stroke-width="1" fill="none" fill-rule="evenodd">
        <g id="画板" transform="translate(-3521.000000, -178.000000)">
            <g id="BTC_Logo" transform="translate(3521.000000, 178.000000)">
                <path d="M1970,1242 C1836.52,1777.66 1293.82,2103.68 758,1970 C222.18,1836.32 -103.69,1293.89 30,758.18 C163.69,222.47 706.12,-103.7 1241.82,30 C1777.52,163.7 2103.69,706.16 1970,1242 Z"
                      id="路径" fill="#353535"></path>
                <path d="M1441,857.53 C1460.88,724.46 1359.56,652.92 1221,605.2 L1266,424.95 L1156.24,397.61 L1112.4,573.12 C1083.58,565.94 1053.96,559.12 1024.52,552.44 L1068.52,375.77 L958.87,348.43 L914,528.61 L692.68,473.79 L663.48,591 C663.48,591 744.9,609.66 743.18,610.82 C787.62,621.92 795.68,651.32 794.32,674.64 L671.18,1168.44 C665.74,1181.94 651.96,1202.18 620.9,1194.44 C622,1196.04 541.14,1174.44 541.14,1174.44 L486.66,1300.23 L707.66,1356.03 L662.24,1538.38 L771.84,1565.72 L816.84,1385.33 C846.84,1393.45 875.84,1400.95 904.26,1408.01 L859.44,1587.56 L969.18,1614.9 L1014.6,1432.9 C1201.73,1468.3 1342.45,1454.02 1401.6,1284.9 C1449.32,1148.65 1399.26,1070.05 1300.8,1018.77 C1372.5,1002.17 1426.5,955.03 1440.91,857.6 M1190.2,1209.12 C1156.2,1345.37 926.85,1271.74 852.43,1253.24 L912.69,1011.69 C987.07,1030.25 1225.58,1067.01 1190.24,1209.1 M1224.24,855.6 C1193.3,979.6 1002.33,916.6 940.35,901.14 L994.91,682 C1056.91,697.48 1256.42,726.3 1224.16,855.59"
                      id="形状" fill="#FFFFFF" fill-rule="nonzero"></path>
            </g>
        </g>
    </g>
</svg>