<?xml version="1.0" encoding="UTF-8"?>
<svg width="307px" height="65px" viewBox="0 0 307 65" version="1.1" xmlns="http://www.w3.org/2000/svg"
     xmlns:xlink="http://www.w3.org/1999/xlink">
    <!-- Generator: Sketch 52.6 (67491) - http://www.bohemiancoding.com/sketch -->
    <title>ChainXlogo041801</title>
    <desc>Created with Sketch.</desc>
    <defs>
        <polygon id="path-1" points="0.00035 0 41.15785 0 41.15785 41.17335 0.00035 41.17335"></polygon>
        <polygon id="path-3" points="0 0.8265 32.5014 0.8265 32.5014 25 0 25"></polygon>
    </defs>
    <g id="页面-1" stroke="none" stroke-width="1" fill="none" fill-rule="evenodd">
        <g id="ChainXlogo041801">
            <g id="Group-3">
                <g id="Fill-1-Clipped">
                    <mask id="mask-2" fill="white">
                        <use xlink:href="#path-1"></use>
                    </mask>
                    <g id="path-1"></g>
                    <path d="M37.3081,18.7271 L26.9981,8.4131 C26.7921,8.2081 26.4591,8.2081 26.2541,8.4131 L22.1651,12.5041 C21.9601,12.7091 21.9601,13.0421 22.1651,13.2481 L32.3731,23.4601 C34.8691,25.9571 34.9351,30.1091 32.3981,32.5631 C29.9321,34.9481 25.9871,34.9231 23.5531,32.4881 L8.6831,17.6111 C6.2481,15.1761 6.2231,11.2291 8.6071,8.7631 C11.0601,6.2251 15.2101,6.2901 17.7061,8.7881 L19.1911,10.2731 C19.3961,10.4781 19.7291,10.4781 19.9341,10.2731 L24.0241,6.1821 C24.2291,5.9771 24.2291,5.6441 24.0241,5.4381 L22.4371,3.8511 C17.3051,-1.2839 8.9821,-1.2839 3.8501,3.8511 C-1.2829,8.9861 -1.2829,17.3111 3.8501,22.4461 L18.7201,37.3221 C23.8531,42.4571 32.1751,42.4571 37.3081,37.3221 C42.4411,32.1871 42.4411,23.8621 37.3081,18.7271"
                          id="Fill-1" fill="#EA754B" mask="url(#mask-2)"></path>
                </g>
            </g>
            <path d="M61.1509,3.8521 C56.0169,-1.2839 47.6939,-1.2839 42.5629,3.8521 L32.4999,13.9191 L37.3079,18.7281 C37.3159,18.7361 37.3239,18.7441 37.3319,18.7521 L47.3949,8.6851 C49.8549,6.2271 53.8589,6.2271 56.3169,8.6851 C58.7769,11.1471 58.7769,15.1521 56.3169,17.6131 L54.7329,19.1981 C54.5269,19.4031 54.5269,19.7361 54.7329,19.9411 L58.8219,24.0331 C59.0279,24.2381 59.3599,24.2381 59.5659,24.0331 L61.1509,22.4471 C66.2819,17.3111 66.2819,8.9881 61.1509,3.8521"
                  id="Fill-4" fill="#34C69A"></path>
            <path d="M52.502,22.1724 C52.296,21.9674 51.964,21.9674 51.758,22.1724 L41.446,32.4874 C40.983,32.9504 40.465,33.3264 39.913,33.6154 C37.534,34.8614 34.522,34.4854 32.524,32.4874 C32.516,32.4794 32.505,32.4684 32.5,32.4614 C30.074,30.0074 30.074,26.0394 32.5,23.5854 L27.669,18.7524 C23.663,22.7764 22.803,28.7504 25.087,33.6154 C25.715,34.9564 26.585,36.2164 27.692,37.3234 C29.099,38.7304 30.747,39.7504 32.5,40.3874 C33.946,40.9104 35.465,41.1734 36.985,41.1734 C40.35,41.1734 43.712,39.8904 46.28,37.3234 L56.592,27.0074 C56.797,26.8024 56.797,26.4694 56.592,26.2634 L52.502,22.1724 Z"
                  id="Fill-6" fill="#34C69A"></path>
            <path d="M61.1504,42.5781 L51.0884,32.5121 L46.2554,37.3471 L56.3174,47.4121 C58.7544,49.8491 58.7764,53.7971 56.3914,56.2631 C53.9384,58.7991 49.7894,58.7321 47.2944,56.2371 L45.8094,54.7511 C45.6044,54.5461 45.2714,54.5461 45.0664,54.7511 L40.9764,58.8421 C40.7714,59.0481 40.7714,59.3811 40.9764,59.5861 L42.3984,61.0091 C47.5474,66.1601 56.1064,66.2931 61.2184,61.1051 C63.7404,58.5451 65.0004,55.2091 65.0004,51.8771 C65.0004,48.5121 63.7174,45.1461 61.1504,42.5781"
                  id="Fill-8" fill="#F6C94A"></path>
            <path d="M42.8354,52.52 C43.0404,52.314 43.0404,51.981 42.8354,51.776 L32.5244,41.462 C32.0624,40.999 31.6854,40.48 31.3974,39.928 C30.1534,37.55 30.5264,34.536 32.5244,32.537 L32.5494,32.512 C35.0024,30.084 38.9694,30.084 41.4234,32.512 L46.2554,27.678 C42.2304,23.672 36.2574,22.812 31.3974,25.097 C30.0544,25.725 28.8004,26.594 27.6924,27.702 C26.2854,29.109 25.2644,30.755 24.6304,32.512 C24.1054,33.957 23.8424,35.48 23.8424,37.001 C23.8424,40.367 25.1274,43.731 27.6924,46.297 L38.0024,56.611 C38.2074,56.816 38.5404,56.816 38.7464,56.611 L42.8354,52.52 Z"
                  id="Fill-10" fill="#F6C94A"></path>
            <path d="M40.3872,32.5386 C40.2502,32.1496 40.0932,31.7656 39.9142,31.3866 C39.2882,30.0426 38.4182,28.7856 37.3082,27.6786 C36.2072,26.5746 34.9562,25.7066 33.6202,25.0786 C33.2552,24.9046 32.8822,24.7516 32.5062,24.6156 C27.8662,22.9326 22.4752,23.9446 18.7472,27.6556 L23.5792,32.4886 C24.0362,32.0366 24.5462,31.6676 25.0882,31.3836 C27.4692,30.1406 30.4822,30.5166 32.4772,32.5126 L32.5012,32.5356 C34.4912,34.5476 34.8512,37.5776 33.5762,39.9546 C33.2972,40.4806 32.9402,40.9726 32.5012,41.4136 L37.3352,46.2496 C41.0262,42.5366 42.0462,37.1666 40.3872,32.5386"
                  id="Fill-12" fill="#46AEE2"></path>
            <path d="M13.2314,42.8398 L18.7474,37.3218 L13.9164,32.4878 L8.3994,38.0058 C8.1934,38.2108 8.1934,38.5438 8.3994,38.7498 L12.4874,42.8398 C12.6934,43.0458 13.0264,43.0458 13.2314,42.8398"
                  id="Fill-14" fill="#46AEE2"></path>
            <g id="Group-18" transform="translate(0.000000, 40.000000)">
                <g id="Fill-16-Clipped">
                    <mask id="mask-4" fill="white">
                        <use xlink:href="#path-3"></use>
                    </mask>
                    <g id="path-3"></g>
                    <path d="M17.6064,16.314 C15.1464,18.775 11.1424,18.775 8.6844,16.314 C6.2244,13.853 6.2244,9.85 8.6844,7.389 L10.2574,5.815 C10.4624,5.61 10.4624,5.277 10.2574,5.071 L6.1684,0.981 C5.9624,0.775 5.6304,0.775 5.4244,0.981 L3.8504,2.555 C-1.2836,7.691 -1.2836,16.014 3.8504,21.15 C6.4184,23.717 9.7804,25.003 13.1434,25 C16.5074,25 19.8724,23.717 22.4404,21.15 L32.5014,11.084 L27.6694,6.25 L17.6064,16.314 Z"
                          id="Fill-16" fill="#46AEE2" mask="url(#mask-4)"></path>
                </g>
            </g>
            <path d="M115.2593,24.1147 C114.8103,24.1147 114.4243,23.8127 114.2963,23.3827 C113.9343,22.1717 113.4743,21.0447 112.9133,19.9997 C112.2393,18.7487 111.3743,17.6657 110.3173,16.7507 C109.2593,15.8377 108.0203,15.1267 106.6033,14.6217 C105.1843,14.1157 103.5383,13.8637 101.6633,13.8637 C98.9233,13.8637 96.5543,14.4167 94.5593,15.5237 C92.5643,16.6317 90.9413,18.1117 89.6923,19.9637 C88.4413,21.8167 87.5163,23.9237 86.9153,26.2807 C86.3143,28.6387 86.0143,31.0457 86.0143,33.4997 C86.0143,35.9547 86.3143,38.3617 86.9153,40.7197 C87.5163,43.0777 88.4413,45.1837 89.6923,47.0357 C90.9413,48.8897 92.5643,50.3697 94.5593,51.4757 C96.5543,52.5837 98.9233,53.1367 101.6633,53.1367 C103.6823,53.1367 105.4603,52.7877 106.9993,52.0897 C108.5373,51.3927 109.8603,50.4287 110.9663,49.2017 C112.0713,47.9747 112.9363,46.5437 113.5623,44.9067 C114.0923,43.5197 114.4663,42.0447 114.6853,40.4837 C114.7543,39.9947 115.1803,39.6357 115.6733,39.6357 L122.4993,39.6357 C123.0983,39.6357 123.5553,40.1587 123.4943,40.7547 C123.2243,43.4017 122.5943,45.8437 121.6033,48.0827 C120.4723,50.6347 118.9463,52.8367 117.0233,54.6887 C115.1003,56.5417 112.8413,57.9737 110.2453,58.9837 C107.6483,59.9947 104.7873,60.4997 101.6633,60.4997 C97.8163,60.4997 94.3673,59.7897 91.3143,58.3707 C88.2613,56.9507 85.6773,55.0137 83.5623,52.5587 C81.4463,50.1047 79.8233,47.2417 78.6943,43.9687 C77.5643,40.6957 77.0003,37.2067 77.0003,33.4997 C77.0003,29.8427 77.5643,26.3777 78.6943,23.1047 C79.8233,19.8317 81.4463,16.9687 83.5623,14.5137 C85.6773,12.0587 88.2613,10.1097 91.3143,8.6657 C94.3673,7.2217 97.8163,6.4997 101.6633,6.4997 C104.5473,6.4997 107.2633,6.8967 109.8123,7.6907 C112.3603,8.4857 114.6083,9.6407 116.5543,11.1567 C118.5023,12.6727 120.0763,14.5137 121.2783,16.6787 C122.3103,18.5397 123.0063,20.6327 123.3653,22.9547 C123.4593,23.5627 122.9883,24.1147 122.3743,24.1147 L115.2593,24.1147 Z"
                  id="Fill-19" fill="#FFFFFF"></path>
            <path d="M130.2583,7.75 L136.5283,7.75 C137.0853,7.75 137.5363,8.198 137.5363,8.751 L137.5363,26.864 L137.6823,26.864 C138.6993,25.182 140.2133,23.775 142.2243,22.645 C144.2353,21.516 146.4763,20.95 148.9483,20.95 C153.0663,20.95 156.3133,22.008 158.6883,24.123 C161.0623,26.24 162.2503,29.413 162.2503,33.644 L162.2503,58.25 C162.2503,58.802 161.7993,59.25 161.2423,59.25 L154.9723,59.25 C154.4153,59.25 153.9643,58.802 153.9643,58.249 L153.9643,35.808 C153.8663,32.876 153.2373,30.748 152.0733,29.424 C150.9113,28.103 149.0933,27.441 146.6223,27.441 C145.2163,27.441 143.9563,27.693 142.8423,28.199 C141.7273,28.704 140.7823,29.401 140.0083,30.291 C139.2323,31.181 138.6273,32.227 138.1913,33.428 C137.7543,34.63 137.5363,35.905 137.5363,37.25 L137.5363,58.249 C137.5363,58.802 137.0853,59.25 136.5283,59.25 L130.2583,59.25 C129.7013,59.25 129.2503,58.802 129.2503,58.249 L129.2503,8.751 C129.2503,8.198 129.7013,7.75 130.2583,7.75"
                  id="Fill-21" fill="#FFFFFF"></path>
            <path d="M193.4849,46.6582 C193.4849,47.9462 193.1719,49.0322 192.5489,49.9142 C191.9239,50.7972 191.1449,51.5242 190.2089,52.0962 C189.2729,52.6692 188.2759,53.0752 187.2209,53.3132 C186.1639,53.5522 185.1799,53.6712 184.2679,53.6712 C183.5489,53.6712 182.7439,53.5992 181.8569,53.4562 C180.9669,53.3132 180.1519,53.0622 179.4079,52.7042 C178.6639,52.3472 178.0279,51.8582 177.4999,51.2382 C176.9709,50.6182 176.7089,49.8542 176.7089,48.9482 C176.7089,47.8992 176.8879,47.0042 177.2479,46.2642 C177.6079,45.5252 178.0999,44.9292 178.7239,44.4752 C179.3479,44.0222 180.0679,43.6652 180.8839,43.4022 C181.6999,43.1402 182.5409,42.9362 183.4039,42.7932 C185.2289,42.4612 187.0519,42.2102 188.8769,42.0422 C190.0879,41.9312 191.1719,41.6792 192.1289,41.2842 C192.7759,41.0172 193.4849,41.5142 193.4849,42.2112 L193.4849,46.6582 Z M197.0069,23.6512 C195.5909,22.7912 193.4649,22.0662 191.6899,21.6832 C189.9129,21.3022 188.6119,21.1112 186.7889,21.1112 C184.7239,21.1112 182.7079,21.3022 180.7399,21.6832 C178.7719,22.0662 177.0069,22.7332 175.4479,23.6872 C173.8879,24.6412 172.6039,25.9052 171.5959,27.4802 C170.7489,28.8022 170.2079,30.4102 169.9699,32.3052 C169.8969,32.8962 170.3659,33.4192 170.9649,33.4192 L177.2159,33.4192 C177.6969,33.4192 178.1009,33.0752 178.1949,32.6072 C178.5159,31.0112 179.3169,29.8032 180.5959,28.9822 C182.0839,28.0292 183.9809,27.5512 186.2839,27.5512 C187.0999,27.5512 187.9639,27.6122 188.8769,27.7302 C189.7879,27.8492 190.6159,28.0882 191.3599,28.4462 C192.1049,28.8042 192.7289,29.3172 193.2329,29.9842 C193.7369,30.6532 193.9889,31.5122 193.9889,32.5602 C193.9889,33.7542 193.6889,34.6482 193.0889,35.2432 C192.4879,35.8412 191.6729,36.2822 190.6409,36.5682 C189.6079,36.8542 188.4199,37.0572 187.0769,37.1762 C185.7419,37.2952 184.3359,37.4952 182.8609,37.7782 C182.8409,37.7822 182.8199,37.7852 182.7999,37.7872 C181.0819,37.9782 179.3749,38.2512 177.6799,38.6072 C175.9759,38.9652 174.4399,39.5502 173.0719,40.3602 C171.7039,41.1722 170.5989,42.2922 169.7599,43.7242 C168.9199,45.1552 168.4999,47.0152 168.4999,49.3052 C168.4999,51.1192 168.8479,52.7042 169.5439,54.0642 C170.2389,55.4242 171.1749,56.5452 172.3519,57.4282 C173.5269,58.3112 174.8829,58.9782 176.4209,59.4312 C177.9559,59.8842 179.5639,60.1112 181.2439,60.1112 C183.4519,60.1112 185.7449,59.7532 188.1209,59.0372 C189.9719,58.4802 191.5979,57.6622 192.9979,56.5822 C193.1529,56.4632 193.3319,56.4022 193.5119,56.3842 L193.5119,59.2752 C193.5119,59.6062 193.9749,59.8742 194.5459,59.8742 L200.9669,59.8742 C201.5379,59.8742 201.9999,59.6062 201.9999,59.2752 L201.9999,57.8892 L201.9999,50.8802 L201.9999,38.1442 L201.9999,31.8452 C201.9999,29.8892 201.3659,28.4842 200.5019,27.1242 C199.6379,25.7652 198.4229,24.5092 197.0069,23.6512 Z"
                  id="Fill-23" fill="#FFFFFF" fill-rule="nonzero"></path>
            <path d="M217.5,12.3564 C217.5,14.9674 215.374,17.0854 212.75,17.0854 C210.126,17.0854 208,14.9674 208,12.3564 C208,9.7444 210.126,7.6274 212.75,7.6274 C215.374,7.6274 217.5,9.7444 217.5,12.3564 M209.543,22.0134 L215.762,22.0134 C216.315,22.0134 216.763,22.4594 216.763,23.0094 L216.763,58.1314 C216.763,58.6814 216.315,59.1274 215.762,59.1274 L209.543,59.1274 C208.991,59.1274 208.543,58.6814 208.543,58.1314 L208.543,23.0094 C208.543,22.4594 208.991,22.0134 209.543,22.0134"
                  id="Fill-25" fill="#FFFFFF" fill-rule="nonzero"></path>
            <path d="M223.9932,22.1074 L229.7382,22.1074 C230.2862,22.1074 230.7312,22.5524 230.7312,23.1004 L230.7312,27.5454 L230.8742,27.6894 C232.1152,25.6384 233.7382,24.0284 235.7432,22.8584 C237.7472,21.6904 239.9662,21.1064 242.3992,21.1064 C246.4552,21.1064 249.6532,22.1554 251.9922,24.2544 C254.3292,26.3544 255.5002,29.5034 255.5002,33.7004 L255.5002,58.1124 C255.5002,58.6614 255.0552,59.1064 254.5072,59.1064 L248.3322,59.1064 C247.7842,59.1064 247.3392,58.6614 247.3392,58.1124 L247.3392,35.8474 C247.2432,32.9384 246.6232,30.8264 245.4782,29.5144 C244.3332,28.2024 242.5432,27.5454 240.1092,27.5454 C238.7242,27.5454 237.4842,27.7964 236.3872,28.2974 C235.2882,28.7984 234.3582,29.4904 233.5952,30.3734 C232.8302,31.2564 232.2352,32.2944 231.8052,33.4854 C231.3752,34.6794 231.1602,35.9434 231.1602,37.2784 L231.1602,58.1124 C231.1602,58.6614 230.7162,59.1064 230.1672,59.1064 L223.9932,59.1064 C223.4452,59.1064 223.0002,58.6614 223.0002,58.1124 L223.0002,23.1004 C223.0002,22.5524 223.4452,22.1074 223.9932,22.1074"
                  id="Fill-27" fill="#FFFFFF"></path>
            <path d="M263.7378,7.9312 L272.0598,7.9312 C272.4018,7.9312 272.7188,8.1042 272.9038,8.3902 L283.4958,24.8262 C283.8858,25.4312 284.7708,25.4402 285.1738,24.8422 L296.2448,8.3742 C296.4318,8.0982 296.7438,7.9312 297.0788,7.9312 L304.7618,7.9312 C305.5698,7.9312 306.0468,8.8342 305.5898,9.4982 L289.9898,32.1782 C289.7558,32.5192 289.7558,32.9682 289.9888,33.3092 L306.8228,57.8662 C307.2788,58.5302 306.8018,59.4312 305.9948,59.4312 L297.4488,59.4312 C297.1098,59.4312 296.7938,59.2602 296.6088,58.9772 L284.8668,41.0152 C284.4728,40.4122 283.5888,40.4092 283.1898,41.0092 L271.2418,58.9832 C271.0558,59.2632 270.7418,59.4312 270.4048,59.4312 L262.5048,59.4312 C261.6978,59.4312 261.2218,58.5302 261.6768,57.8662 L278.5108,33.3092 C278.7448,32.9682 278.7448,32.5192 278.5098,32.1782 L262.9098,9.4982 C262.4538,8.8342 262.9298,7.9312 263.7378,7.9312"
                  id="Fill-29" fill="#F6C94A"></path>
        </g>
    </g>
</svg>