<svg xmlns="http://www.w3.org/2000/svg" viewBox="0 0 490.5 65">
    <defs>
        <style>.cls-1{fill:#ea754b;}.cls-2{fill:#34c69a;}.cls-3{fill:#f6c94a;}.cls-4{fill:#46aee2;}.cls-5{fill:#fff;}
        </style>
    </defs>
    <title>资源 38</title>
    <g id="图层_2" data-name="图层 2">
        <g id="图层_1-2" data-name="图层 1">
            <path class="cls-1"
                  d="M37.31,18.73,27,8.41a.54.54,0,0,0-.75,0L22.17,12.5a.53.53,0,0,0,0,.75l10.2,10.21a6.42,6.42,0,0,1,0,9.1,6.32,6.32,0,0,1-8.85-.07L8.68,17.61a6.32,6.32,0,0,1-.07-8.85,6.42,6.42,0,0,1,9.1,0l1.48,1.48a.51.51,0,0,0,.74,0L24,6.18a.51.51,0,0,0,0-.74L22.44,3.85a13.15,13.15,0,0,0-18.59,0h0a13.16,13.16,0,0,0,0,18.6L18.72,37.32a13.13,13.13,0,0,0,18.59,0h0A13.15,13.15,0,0,0,37.31,18.73Z" />
            <path class="cls-2"
                  d="M61.15,3.85a13.15,13.15,0,0,0-18.59,0L32.5,13.92l4.81,4.81,0,0L47.39,8.69a6.31,6.31,0,1,1,8.93,8.92L54.73,19.2a.53.53,0,0,0,0,.74L58.82,24a.53.53,0,0,0,.75,0l1.58-1.58A13.16,13.16,0,0,0,61.15,3.85Z" />
            <path class="cls-2"
                  d="M52.5,22.17a.53.53,0,0,0-.74,0L41.45,32.49a6.43,6.43,0,0,1-1.54,1.13,6.32,6.32,0,0,1-7.39-1.13s0,0,0,0a6.31,6.31,0,0,1,0-8.87l-4.83-4.84A13.16,13.16,0,0,0,32.5,40.39a13.29,13.29,0,0,0,4.48.78,13.1,13.1,0,0,0,9.3-3.85L56.59,27a.53.53,0,0,0,0-.75Z" />
            <path class="cls-3"
                  d="M61.15,42.58,51.09,32.51l-4.83,4.84L56.32,47.41a6.32,6.32,0,0,1,.07,8.85,6.43,6.43,0,0,1-9.1,0l-1.48-1.49a.53.53,0,0,0-.74,0L41,58.84a.53.53,0,0,0,0,.75L42.4,61a13.36,13.36,0,0,0,18.82.09,13.15,13.15,0,0,0-.07-18.52Z" />
            <path class="cls-3"
                  d="M42.84,52.52a.53.53,0,0,0,0-.74L32.53,41.46a5.88,5.88,0,0,1-1.13-1.53,6.31,6.31,0,0,1,1.13-7.39l0,0a6.31,6.31,0,0,1,8.87,0l4.84-4.83A13.13,13.13,0,0,0,31.4,25.1a13,13,0,0,0-3.71,2.6,13.16,13.16,0,0,0,0,18.6L38,56.61a.53.53,0,0,0,.75,0Z" />
            <path class="cls-4"
                  d="M40.39,32.54c-.14-.39-.3-.77-.48-1.15a13.15,13.15,0,0,0-6.29-6.31,9.63,9.63,0,0,0-1.11-.46,13.1,13.1,0,0,0-13.76,3l4.83,4.83a6.67,6.67,0,0,1,1.51-1.11,6.34,6.34,0,0,1,7.39,1.13l0,0A6.32,6.32,0,0,1,33.58,40a6.07,6.07,0,0,1-1.08,1.46l4.84,4.84A13.14,13.14,0,0,0,40.39,32.54Z" />
            <path class="cls-4"
                  d="M13.23,42.84l5.52-5.52-4.83-4.83L8.4,38a.51.51,0,0,0,0,.74l4.09,4.09A.51.51,0,0,0,13.23,42.84Z" />
            <path class="cls-4"
                  d="M17.61,56.31a6.31,6.31,0,0,1-8.93-8.92l1.58-1.57a.54.54,0,0,0,0-.75L6.17,41a.54.54,0,0,0-.75,0L3.85,42.56A13.15,13.15,0,0,0,22.44,61.15L32.5,51.08l-4.83-4.83Z" />
            <path class="cls-5"
                  d="M115.26,24.11a1,1,0,0,1-1-.73A18.56,18.56,0,0,0,112.91,20a11.54,11.54,0,0,0-2.59-3.25,11.74,11.74,0,0,0-3.72-2.13,14.82,14.82,0,0,0-4.94-.76,14.47,14.47,0,0,0-7.1,1.66A14,14,0,0,0,89.69,20a20.08,20.08,0,0,0-2.77,6.32,29.1,29.1,0,0,0,0,14.44A20.08,20.08,0,0,0,89.69,47a14,14,0,0,0,4.87,4.44,14.47,14.47,0,0,0,7.1,1.66,12.79,12.79,0,0,0,5.34-1,11.92,11.92,0,0,0,4-2.89,13.67,13.67,0,0,0,2.59-4.29,20.41,20.41,0,0,0,1.13-4.43,1,1,0,0,1,1-.84h6.83a1,1,0,0,1,1,1.11,24,24,0,0,1-1.89,7.33A20.6,20.6,0,0,1,117,54.69,20.19,20.19,0,0,1,110.24,59a23.22,23.22,0,0,1-8.58,1.52,24.31,24.31,0,0,1-10.35-2.13,22.89,22.89,0,0,1-7.75-5.81A26.19,26.19,0,0,1,78.69,44,31.83,31.83,0,0,1,77,33.5a31.67,31.67,0,0,1,1.69-10.4,26.19,26.19,0,0,1,4.87-8.59,23.23,23.23,0,0,1,7.75-5.84A23.88,23.88,0,0,1,101.66,6.5a27.36,27.36,0,0,1,8.15,1.19,21,21,0,0,1,6.74,3.47,17.82,17.82,0,0,1,4.73,5.52A18.76,18.76,0,0,1,123.37,23a1,1,0,0,1-1,1.15Z" />
            <path class="cls-5"
                  d="M130.26,7.75h6.27a1,1,0,0,1,1,1V26.86h.14a12.07,12.07,0,0,1,4.54-4.22A13.64,13.64,0,0,1,149,21q6.18,0,9.74,3.17t3.56,9.52V58.25a1,1,0,0,1-1,1H155a1,1,0,0,1-1-1V35.81q-.14-4.39-1.89-6.39t-5.45-2a9,9,0,0,0-3.78.76A8.1,8.1,0,0,0,140,30.29a9.85,9.85,0,0,0-1.82,3.14,11,11,0,0,0-.65,3.82v21a1,1,0,0,1-1,1h-6.27a1,1,0,0,1-1-1V8.75A1,1,0,0,1,130.26,7.75Z" />
            <path class="cls-5"
                  d="M197,23.65a19.18,19.18,0,0,0-5.32-2,21.3,21.3,0,0,0-4.9-.57,31.82,31.82,0,0,0-6,.57,15.85,15.85,0,0,0-5.29,2,11.81,11.81,0,0,0-3.85,3.79A11.46,11.46,0,0,0,170,32.31a1,1,0,0,0,1,1.11h6.25a1,1,0,0,0,1-.81A5.36,5.36,0,0,1,180.6,29a10.36,10.36,0,0,1,5.68-1.43,20.07,20.07,0,0,1,2.6.18,8,8,0,0,1,2.48.72A5,5,0,0,1,193.23,30a4.14,4.14,0,0,1,.76,2.58,3.62,3.62,0,0,1-.9,2.68,5.49,5.49,0,0,1-2.45,1.33,20.67,20.67,0,0,1-3.56.61c-1.34.12-2.74.32-4.22.6h-.06c-1.72.19-3.43.46-5.12.82a15.16,15.16,0,0,0-4.61,1.75,9.28,9.28,0,0,0-3.31,3.36,11,11,0,0,0-1.26,5.59,10.36,10.36,0,0,0,1,4.75,9.73,9.73,0,0,0,2.81,3.37,12.68,12.68,0,0,0,4.07,2,17.07,17.07,0,0,0,4.82.68A24,24,0,0,0,188.12,59,15,15,0,0,0,193,56.58a1,1,0,0,1,.51-.2v2.89c0,.34.46.6,1,.6H201c.57,0,1-.26,1-.6V31.84a8.29,8.29,0,0,0-1.5-4.72A11,11,0,0,0,197,23.65Zm-3.53,23a5.49,5.49,0,0,1-.93,3.25,8,8,0,0,1-2.34,2.19,10,10,0,0,1-3,1.21,13.39,13.39,0,0,1-2.95.36,15.51,15.51,0,0,1-2.41-.21,9,9,0,0,1-2.45-.76,5.6,5.6,0,0,1-1.91-1.46,3.41,3.41,0,0,1-.79-2.29,6.12,6.12,0,0,1,.54-2.69,4.76,4.76,0,0,1,1.47-1.78,7.54,7.54,0,0,1,2.16-1.08,19.29,19.29,0,0,1,2.52-.61c1.83-.33,3.65-.58,5.48-.75a11,11,0,0,0,3.25-.76,1,1,0,0,1,1.36.93Z" />
            <path class="cls-5"
                  d="M209.54,22h6.22a1,1,0,0,1,1,1V58.13a1,1,0,0,1-1,1h-6.22a1,1,0,0,1-1-1V23A1,1,0,0,1,209.54,22Zm8-9.65a4.75,4.75,0,1,1-4.75-4.73A4.74,4.74,0,0,1,217.5,12.36Z" />
            <path class="cls-5"
                  d="M224,22.11h5.75a1,1,0,0,1,1,1v4.45l.14.14a13.82,13.82,0,0,1,4.87-4.83,13,13,0,0,1,6.66-1.75q6.09,0,9.59,3.14t3.51,9.45V58.11a1,1,0,0,1-1,1h-6.18a1,1,0,0,1-1-1V35.85q-.15-4.37-1.86-6.34t-5.37-2a8.83,8.83,0,0,0-3.72.75,8.15,8.15,0,0,0-2.8,2.07,9.66,9.66,0,0,0-1.78,3.12,11.06,11.06,0,0,0-.65,3.79V58.11a1,1,0,0,1-1,1H224a1,1,0,0,1-1-1v-35A1,1,0,0,1,224,22.11Z" />
            <path class="cls-3"
                  d="M263.74,7.93h8.32a1,1,0,0,1,.84.46l10.6,16.44a1,1,0,0,0,1.67,0L296.25,8.37a1,1,0,0,1,.83-.44h7.68a1,1,0,0,1,.83,1.57L290,32.18a1,1,0,0,0,0,1.13l16.83,24.56a1,1,0,0,1-.83,1.56h-8.54a1,1,0,0,1-.84-.45L284.87,41a1,1,0,0,0-1.68,0L271.24,59a1,1,0,0,1-.83.45h-7.9a1,1,0,0,1-.83-1.56l16.83-24.56a1,1,0,0,0,0-1.13L262.91,9.5A1,1,0,0,1,263.74,7.93Z" />
            <rect class="cls-1" x="315" y="8.75" width="175.5" height="51.5" rx="25.75" ry="25.75" />
            <path class="cls-5" d="M358.9,20.52v3.65h-8.54V46.58h-4.27V24.17h-8.54V20.52Z" />
            <path class="cls-5"
                  d="M376.78,30.34c1.5,1.9,2.26,4.56,2.26,8H364.92a6.79,6.79,0,0,0,1.42,4,4.41,4.41,0,0,0,3.47,1.39,5.08,5.08,0,0,0,3.1-.88,6.2,6.2,0,0,0,1.68-2.3h4.16a8.57,8.57,0,0,1-2.63,4.42,9.38,9.38,0,0,1-6.28,2.15,8.82,8.82,0,0,1-6.68-2.59,10.06,10.06,0,0,1-2.62-7.37A10.21,10.21,0,0,1,363,30.08a8.17,8.17,0,0,1,6.64-2.88A8.44,8.44,0,0,1,376.78,30.34Zm-10.26,1.42a6.22,6.22,0,0,0-1.53,3.4h9.71c-.37-3.07-2-4.57-4.93-4.57A4.35,4.35,0,0,0,366.52,31.76Z" />
            <path class="cls-5"
                  d="M397.58,33.19h-4.05a3.43,3.43,0,0,0-1.32-2,5.35,5.35,0,0,0-2.84-.59,5,5,0,0,0-2.49.48,1.61,1.61,0,0,0-.94,1.57c0,.58.47,1.13,1.49,1.57a33.09,33.09,0,0,0,3.76,1.09,15.33,15.33,0,0,1,4.75,1.79,4.53,4.53,0,0,1,2.26,4c0,4-2.85,6-8.51,6-5.25,0-8.06-2.22-8.46-6.64h4A4.14,4.14,0,0,0,386.56,43a5.19,5.19,0,0,0,3,.7c2.92,0,4.38-.8,4.38-2.34a2.35,2.35,0,0,0-1.64-2.08,22,22,0,0,0-3.73-1.06,16,16,0,0,1-4.71-1.64,4.28,4.28,0,0,1-2.18-3.83,4.52,4.52,0,0,1,2.15-4.05,9.33,9.33,0,0,1,5.62-1.5C394.4,27.2,397.14,29.17,397.58,33.19Z" />
            <path class="cls-5"
                  d="M407.39,27.71h4.2v3.43h-4.2V41.8a1.51,1.51,0,0,0,.29,1,1.26,1.26,0,0,0,.95.33h2.49v3.43h-3.18a4.56,4.56,0,0,1-3.61-1.31,5,5,0,0,1-1.1-3.47V31.14h-3.39V27.71h3.39V23.33l4.16-1.71Z" />
            <path class="cls-5"
                  d="M431.52,34.94V46.58h-4.16V35.3c0-3.1-1.43-4.63-4.28-4.63a3.81,3.81,0,0,0-2.7,1.09,5.27,5.27,0,0,0-1.53,3.47V46.58h-4.16V27.71h4.16V29.9a7.67,7.67,0,0,1,2.48-2,6.86,6.86,0,0,1,3.11-.69C429.14,27.2,431.52,29.76,431.52,34.94Z" />
            <path class="cls-5"
                  d="M451,30.34c1.5,1.9,2.26,4.56,2.26,8H439.18a6.79,6.79,0,0,0,1.42,4,4.41,4.41,0,0,0,3.47,1.39,5.08,5.08,0,0,0,3.1-.88,6.2,6.2,0,0,0,1.68-2.3H453a8.57,8.57,0,0,1-2.63,4.42,9.38,9.38,0,0,1-6.28,2.15,8.82,8.82,0,0,1-6.68-2.59,10.06,10.06,0,0,1-2.62-7.37,10.21,10.21,0,0,1,2.48-7.05,8.17,8.17,0,0,1,6.64-2.88A8.44,8.44,0,0,1,451,30.34Zm-10.26,1.42a6.15,6.15,0,0,0-1.53,3.4H449c-.37-3.07-2-4.57-4.93-4.57A4.34,4.34,0,0,0,440.78,31.76Z" />
            <path class="cls-5"
                  d="M462.49,27.71h4.2v3.43h-4.2V41.8a1.46,1.46,0,0,0,.3,1,1.25,1.25,0,0,0,.95.33h2.48v3.43H463a4.58,4.58,0,0,1-3.61-1.31,5,5,0,0,1-1.1-3.47V31.14h-3.39V27.71h3.39V23.33l4.16-1.71Z" />
        </g>
    </g>
</svg>