<?xml version="1.0" encoding="UTF-8"?>
<svg width="24px" height="24px" viewBox="0 0 24 24" version="1.1" xmlns="http://www.w3.org/2000/svg"
     xmlns:xlink="http://www.w3.org/1999/xlink">
    <!-- Generator: Sketch 52.6 (67491) - http://www.bohemiancoding.com/sketch -->
    <title>Group 6</title>
    <desc>Created with Sketch.</desc>
    <defs>
        <polygon id="path-1"
                 points="0 0.0712535118 8.90462468 0.0712535118 8.90462468 8.79415116 0 8.79415116"></polygon>
        <path d="M1.43676435,1.60566617 C1.32020362,1.66548456 1.21034395,1.74314677 1.11190441,1.83846789 L0.0715409168,0.81942876 C0.874158274,0.0370744593 2.0350465,-0.176496615 3.03407105,0.178438171 C3.1149557,0.207284134 3.19536844,0.239366023 3.27408233,0.276070662 C3.53495185,0.396262176 3.780626,0.558428265 4.00110038,0.761367013 L2.95941555,1.78179297"
              id="path-3"></path>
    </defs>
    <g id="页面-1" stroke="none" stroke-width="1" fill="none" fill-rule="evenodd">
        <g id="01-04资产样式2" transform="translate(-789.000000, -167.000000)">
            <g id="分组-copy-4" transform="translate(657.000000, 56.000000)">
                <g id="ACCOUNT-Copy-6">
                    <g id="分组-5" transform="translate(126.000000, 105.000000)">
                        <g id="Group-6" transform="translate(6.000000, 6.000000)">
                            <rect id="矩形" fill="#FFFFFF" x="0" y="0" width="24" height="24" rx="6"></rect>
                            <g id="Group-3" transform="translate(5.000000, 5.000000)">
                                <mask id="mask-2" fill="white">
                                    <use xlink:href="#path-1"></use>
                                </mask>
                                <g id="Clip-2"></g>
                                <path d="M8.07174185,4.03869921 L5.84114269,1.85362249 C5.79666537,1.81014577 5.72468609,1.81014577 5.6803036,1.85362249 L4.79549895,2.7203699 C4.75111647,2.76384662 4.75111647,2.83435694 4.79549895,2.87792655 L7.00419137,5.04154362 C7.54417826,5.57041747 7.55840342,6.45007784 7.00940726,6.97003339 C6.47596395,7.475218 5.62245464,7.46992276 5.09583939,6.95396187 L1.87848864,3.80236423 C1.35187339,3.28640334 1.346373,2.45031259 1.86208229,1.92775587 C2.39287025,1.38996371 3.29085687,1.40399146 3.83084376,1.93286531 L4.15204777,2.24760703 C4.19652509,2.29108375 4.26850437,2.29108375 4.31288685,2.24760703 L5.1976915,1.38095251 C5.24207399,1.3373829 5.24207399,1.26687258 5.1976915,1.22330296 L4.85448593,0.887101577 C3.74397548,-0.200745389 1.94345018,-0.200745389 0.8328449,0.887101577 C-0.277665545,1.97494854 -0.277665545,3.73872843 0.8328449,4.8265754 L4.05019566,7.97826594 C5.1607061,9.0661129 6.9612314,9.0661129 8.07174185,7.97826594 L8.07174185,7.97817304 C9.18225229,6.89032607 9.18225229,5.12663908 8.07174185,4.03869921"
                                      id="Fill-1" fill="#EA754B" mask="url(#mask-2)"></path>
                            </g>
                            <path d="M18.1711029,5.81902681 C17.065246,4.72699106 15.2726304,4.72699106 14.1674343,5.81902681 L12,7.95955488 L13.0355194,8.98231275 C13.0373133,8.98399108 13.0390127,8.98566941 13.0406177,8.98734775 L15.2081465,6.84681968 C15.7380854,6.32401875 16.6004518,6.32401875 17.1298243,6.84681968 C17.6597633,7.37027329 17.6597633,8.22193437 17.1298243,8.74529474 L16.7887109,9.08208036 C16.7445257,9.12571703 16.7445257,9.19658001 16.7887109,9.24021668 L17.6695822,10.1100597 C17.7137674,10.1537896 17.7855211,10.1537896 17.8297063,10.1100597 L18.1711029,9.77299437 C19.276299,8.68086538 19.276299,6.9111558 18.1711029,5.81902681"
                                  id="Fill-4" fill="#34C69A"></path>
                            <path d="M16.6011806,9.74093942 C16.5556231,9.69638806 16.4818957,9.69638806 16.4364353,9.74093942 L14.1510794,11.9754417 C14.0485021,12.0756585 13.9337826,12.1572568 13.8113893,12.2198567 C13.2842236,12.4898247 12.616597,12.4084163 12.1738439,11.9754417 C12.1720955,11.9737319 12.1697641,11.971452 12.1685985,11.9697422 C11.630942,11.4382606 11.630942,10.5785809 12.1685985,10.0470994 L11.0978509,9 C10.2101106,9.87164873 10.0196238,11.1659179 10.5258077,12.2198567 C10.665103,12.510343 10.8579211,12.7832557 11.1030964,13.0231111 C11.4148109,13.3279411 11.7800482,13.5488931 12.1685985,13.6867268 C12.4890554,13.8000525 12.8257342,13.8571429 13.1624131,13.8571429 C13.9080412,13.8571429 14.6531836,13.5791006 15.2223126,13.0231111 L17.5075714,10.7883238 C17.5530318,10.7439624 17.5530318,10.6717683 17.5075714,10.627217 L16.6011806,9.74093942 Z"
                                  id="Fill-6" fill="#34C69A"></path>
                            <path d="M18.1640394,14.2717461 L15.9791965,12.1428571 L14.9298437,13.165336 L17.1146866,15.2942249 C17.6435985,15.8096841 17.6485478,16.6445462 17.130772,17.1661263 C16.5980529,17.7025451 15.6969896,17.6883556 15.1553237,17.1605618 L14.8327607,16.8464452 C14.7882168,16.8029492 14.7159756,16.8029492 14.6714317,16.8464452 L13.783408,17.7116338 C13.738864,17.7551297 13.738864,17.825428 13.783408,17.868924 L14.0921699,18.1697785 C15.2102422,19.2591242 17.068715,19.2873177 18.1787922,18.190089 C18.7263593,17.6488476 19,16.9433604 19,16.2385224 C19,15.526636 18.7214099,14.8147496 18.1640394,14.2717461"
                                  id="Fill-8" fill="#F6C94A"></path>
                            <path d="M14.4515846,16.3644682 C14.4970632,16.3198369 14.4970632,16.2476084 14.4515846,16.2030722 L12.1707687,13.9646556 C12.0683691,13.864259 11.9848785,13.7515864 11.9211696,13.6317766 C11.6460676,13.1156142 11.7286855,12.4614659 12.1707687,12.0277144 L12.176102,12.0223853 C12.7188394,11.4953744 13.596412,11.4953744 14.1391494,12.0223853 L15.2083333,10.9732167 C14.3176699,10.1039056 12.9964627,9.91710128 11.9211696,10.4130892 C11.6242495,10.5494573 11.3466263,10.7378794 11.1015848,10.9783555 C10.7903132,11.2839229 10.5645685,11.6410684 10.4243509,12.0223853 C10.3079877,12.3359463 10.25,12.6665415 10.25,12.9965657 C10.25,13.7269393 10.5341202,14.4570274 11.1015848,15.0139194 L13.3824976,17.2522408 C13.4278793,17.2968721 13.501479,17.2968721 13.5469576,17.2522408 L14.4515846,16.3644682 Z"
                                  id="Fill-10" fill="#F6C94A"></path>
                            <path d="M13.8711218,12.0298425 C13.8408636,11.9454965 13.8060472,11.8623852 13.7664787,11.7803188 C13.6279889,11.4892871 13.4354804,11.2169673 13.1901169,10.977132 C12.9464021,10.7378667 12.6695196,10.5498929 12.3740166,10.4137804 C12.2932309,10.3761667 12.2106026,10.3431121 12.1274893,10.313572 C11.1009389,9.94902249 9.90806501,10.1682461 9.08333333,10.9720029 L10.1522647,12.0190143 C10.2535135,11.9209905 10.3663032,11.8412987 10.4861724,11.7797489 C11.0130736,11.5102786 11.6796282,11.5918701 12.1210886,12.0241434 L12.1263256,12.0292726 C12.5665251,12.4650603 12.646244,13.1212115 12.3642215,13.6362161 C12.3025412,13.7501022 12.2234042,13.8565796 12.1263256,13.9523237 L13.1959358,15 C14.012521,14.1955784 14.2381973,13.0324012 13.8711218,12.0298425"
                                  id="Fill-12" fill="#46AEE2"></path>
                            <path d="M7.85783362,14.1092981 L9.08333333,12.9088037 L8.00985246,11.8571429 L6.78425537,13.0575418 C6.73858154,13.1021918 6.73858154,13.1747004 6.78425537,13.2193504 L7.69266774,14.1092981 C7.73824417,14.1540435 7.81225719,14.1540435 7.85783362,14.1092981"
                                  id="Fill-14" fill="#46AEE2"></path>
                            <path d="M8.79213182,17.1520637 C8.26212882,17.6756875 7.39981186,17.6756875 6.87046971,17.1520637 C6.34056112,16.62844 6.34056112,15.77691 6.87046971,15.2532863 L7.20920337,14.9184768 C7.25348043,14.8748182 7.25348043,14.8039195 7.20920337,14.7601676 L6.32847697,13.8898868 C6.28429432,13.8462282 6.21263912,13.8462282 6.16836207,13.8898868 L5.82934518,14.2248829 C4.72355161,15.3175615 4.72355161,17.0881617 5.82934518,18.1808403 C6.38247799,18.7269464 7.10658255,19.0004658 7.83068712,18.9999994 C8.55545253,18.9999994 9.28012354,18.7269464 9.83325635,18.1808403 L12,16.039235 L10.9594419,15.0110182 L8.79213182,17.1520637 Z"
                                  id="Fill-16" fill="#46AEE2"></path>
                            <g id="Group-29" transform="translate(9.083333, 10.142857)">
                                <mask id="mask-4" fill="white">
                                    <use xlink:href="#path-3"></use>
                                </mask>
                                <g id="Clip-28"></g>
                                <path d="M1.43676435,1.60566617 C1.92311045,1.35686974 2.53139701,1.41594849 2.95941555,1.78179297 L4.00110038,0.761367013 C3.780626,0.558428265 3.53495185,0.396262176 3.27408233,0.276070662 C3.19536844,0.239366023 3.1149557,0.207284134 3.03407105,0.178438171 C2.0350465,-0.176496615 0.874158274,0.0370744593 0.0715409168,0.81942876 L1.11190441,1.83846789 C1.21034395,1.74314677 1.32020362,1.66548456 1.43676435,1.60566617"
                                      id="Fill-27" mask="url(#mask-4)"></path>
                            </g>
                        </g>
                    </g>
                </g>
            </g>
        </g>
    </g>
</svg>