<?xml version="1.0" encoding="UTF-8"?>
<svg width="179px" height="147px" viewBox="0 0 179 147" version="1.1" xmlns="http://www.w3.org/2000/svg"
     xmlns:xlink="http://www.w3.org/1999/xlink">
    <!-- Generator: Sketch 52.6 (67491) - http://www.bohemiancoding.com/sketch -->
    <title>合并形状</title>
    <desc>Created with Sketch.</desc>
    <g id="页面-1" stroke="none" stroke-width="1" fill="none" fill-rule="evenodd">
        <g id="01-01资产" transform="translate(-753.000000, -206.000000)" fill="#FFFFFF">
            <g id="分组-4" transform="translate(16.000000, 72.000000)">
                <g id="Fill-1" transform="translate(16.000000, 16.000000)">
                    <path d="M741.740721,265 C712.362026,229.784893 714.193953,177.316511 747.2365,144.253081 C782.221488,109.248973 838.939528,109.248973 873.921528,144.253081 L884.732789,155.071174 C886.130874,156.473132 886.130874,158.741972 884.732789,160.14393 L856.860708,188.030635 C855.462623,189.429604 853.195216,189.429604 851.794144,188.030635 L841.675951,177.903059 C824.665916,160.885264 796.378593,160.433887 779.658332,177.73865 C763.413061,194.553177 763.586328,221.45642 780.175145,238.05871 L807.100213,265 L741.740721,265 Z M899.998612,236.265568 C893.790785,230.053818 884.479044,220.736192 872.06339,208.312691 C870.665305,206.910733 870.665305,204.641893 872.06339,203.242925 L899.93547,175.35323 C899.95678,175.331906 899.978292,175.310908 899.999999,175.290235 L900,236.266957 L899.998612,236.265568 Z"
                          id="合并形状"></path>
                </g>
            </g>
        </g>
    </g>
</svg>