<?xml version="1.0" encoding="UTF-8"?>
<svg width="16px" height="16px" viewBox="0 0 16 16" version="1.1" xmlns="http://www.w3.org/2000/svg"
     xmlns:xlink="http://www.w3.org/1999/xlink">
    <!-- Generator: Sketch 60 (88103) - https://sketch.com -->
    <title>注册节点</title>
    <desc>Created with Sketch.</desc>
    <g id="页面-1" stroke="none" stroke-width="1" fill="none" fill-rule="evenodd" opacity="0.719999969">
        <g id="03-01投票选举" transform="translate(-133.000000, -75.000000)">
            <g id="注册节点" transform="translate(131.000000, 74.000000)">
                <g id="24px-(21)">
                    <polygon id="路径" points="0 0 20 0 20 20 0 20"></polygon>
                    <path d="M3.4,17 L14.6,17 C15.37,17 16,16.325 16,15.5 C16,14.675 15.37,14 14.6,14 L3.4,14 C2.63,14 2,14.675 2,15.5 C2,16.325 2.63,17 3.4,17 Z M3.4,14.75 L4.8,14.75 L4.8,16.25 L3.4,16.25 L3.4,14.75 Z M2,6.5 C2,7.325 2.63,8 3.4,8 L7.6,8 C8.37,8 9,7.325 9,6.5 C9,5.675 8.37,5 7.6,5 L3.4,5 C2.63,5 2,5.675 2,6.5 Z M4.8,7.25 L3.4,7.25 L3.4,5.75 L4.8,5.75 L4.8,7.25 Z M3.4,12.5 L14.6,12.5 C15.37,12.5 16,11.825 16,11 C16,10.175 15.37,9.5 14.6,9.5 L3.4,9.5 C2.63,9.5 2,10.175 2,11 C2,11.825 2.63,12.5 3.4,12.5 Z M3.4,10.25 L4.8,10.25 L4.8,11.75 L3.4,11.75 L3.4,10.25 Z"
                          id="形状" fill="#000000" fill-rule="nonzero"></path>
                    <path d="M14,1 C14.5522847,1 15,1.44771525 15,2 L15,4 L17,4 C17.5522847,4 18,4.44771525 18,5 C18,5.55228475 17.5522847,6 17,6 L15,6 L15,8 C15,8.55228475 14.5522847,9 14,9 C13.4477153,9 13,8.55228475 13,8 L13,6 L11,6 C10.4477153,6 10,5.55228475 10,5 C10,4.44771525 10.4477153,4 11,4 L13,4 L13,2 C13,1.44771525 13.4477153,1 14,1 Z"
                          id="合并形状" fill="#000000"></path>
                </g>
            </g>
        </g>
    </g>
</svg>