<?xml version="1.0" encoding="UTF-8"?>
<svg width="16px" height="16px" viewBox="0 0 16 16" version="1.1" xmlns="http://www.w3.org/2000/svg"
     xmlns:xlink="http://www.w3.org/1999/xlink">
    <!-- Generator: Sketch 60 (88103) - https://sketch.com -->
    <title>合并形状 copy</title>
    <desc>Created with Sketch.</desc>
    <g id="页面-1" stroke="none" stroke-width="1" fill="none" fill-rule="evenodd">
        <g id="01-01资产" transform="translate(-1232.000000, -255.000000)" fill="#EA754B">
            <g id="分组" transform="translate(964.000000, 72.000000)">
                <path d="M280,183 C282.209139,183 284,184.790861 284,187 L284,195 C284,197.209139 282.209139,199 280,199 L272,199 C269.790861,199 268,197.209139 268,195 L268,187 C268,184.790861 269.790861,183 272,183 L280,183 Z M273.171573,186.757359 C272.781049,186.366835 272.147884,186.366835 271.757359,186.757359 C271.366835,187.147884 271.366835,187.781049 271.757359,188.171573 L271.757359,188.171573 L274.585079,190.999293 L271.757359,193.828427 C271.366835,194.218951 271.366835,194.852116 271.757359,195.242641 C272.147884,195.633165 272.781049,195.633165 273.171573,195.242641 L273.171573,195.242641 L275.999293,192.413506 L278.828427,195.242641 C279.218951,195.633165 279.852116,195.633165 280.242641,195.242641 C280.633165,194.852116 280.633165,194.218951 280.242641,193.828427 L280.242641,193.828427 L277.413506,190.999293 L280.242641,188.171573 C280.633165,187.781049 280.633165,187.147884 280.242641,186.757359 C279.852116,186.366835 279.218951,186.366835 278.828427,186.757359 L278.828427,186.757359 L275.999293,189.585079 Z"
                      id="合并形状-copy"></path>
            </g>
        </g>
    </g>
</svg>