<?xml version="1.0" encoding="UTF-8"?>
<svg width="10px" height="10px" viewBox="0 0 10 10" version="1.1" xmlns="http://www.w3.org/2000/svg"
     xmlns:xlink="http://www.w3.org/1999/xlink">
    <!-- Generator: Sketch 60 (88103) - https://sketch.com -->
    <title>形状</title>
    <desc>Created with Sketch.</desc>
    <g id="组件" stroke="none" stroke-width="1" fill="none" fill-rule="evenodd">
        <g id="导航" transform="translate(-478.000000, -7.000000)" fill="#000000" fill-rule="nonzero">
            <g id="语言" transform="translate(478.000000, 7.000000)">
                <path d="M8.76983324,8.27261348 C10.032157,6.80177418 10.3312893,4.73413239 9.53758083,2.96584043 C8.74387239,1.19754847 7.00016726,0.0468464844 5.0622179,0.0124689453 C5.01615519,0.00553719642 4.96931452,0.00553719642 4.92325181,0.0124689453 C2.22715433,0.0569903998 0.051421723,2.23026455 0.00385213867,4.92630997 C0.00098801557,4.95588689 0.00098801557,4.98567135 0.00385213867,5.01524827 C0.0278139732,7.0257924 1.25313649,8.82662433 3.11452702,9.58694476 C4.97591755,10.3472652 7.11162983,9.91931196 8.53637021,8.50051786 L8.73648138,8.2892894 L8.76983324,8.27261348 Z M0.470778213,5.2098008 L2.56638688,5.2098008 C2.57879722,5.89330199 2.66452054,6.5734979 2.82208449,7.23870575 C2.34324844,7.35053295 1.88536802,7.53818887 1.46577543,7.79457012 C0.864881641,7.04944848 0.516434378,6.13258445 0.470778213,5.17644894 L0.470778213,5.2098008 Z M1.46021679,2.15810541 C1.87728099,2.42693971 2.33539685,2.62595726 2.81652585,2.74732165 C2.66240268,3.40548114 2.5785536,4.07813713 2.56638688,4.75399202 L0.470778213,4.75399202 C0.51947919,3.80619375 0.865695956,2.897861 1.46021679,2.15810541 L1.46021679,2.15810541 Z M9.53692607,4.75399202 L7.43575875,4.75399202 C7.42359204,4.07813713 7.33974295,3.40548114 7.18561979,2.74732165 C7.66635241,2.63596544 8.12613649,2.44829847 8.54748749,2.19145728 C9.13892255,2.93038739 9.4831059,3.83654242 9.53136742,4.78178523 L9.53692607,4.75399202 Z M6.97994997,4.75399202 L5.22341856,4.75399202 L5.22341856,3.0085779 C5.73097464,3.00085225 6.23688391,2.94877336 6.73536965,2.85293588 C6.88219375,3.47824223 6.96231535,4.11735169 6.97439133,4.75955066 L6.97994997,4.75399202 Z M5.22897721,2.53053454 L5.22897721,0.484953662 C5.75370414,0.725610121 6.15591664,1.17206599 6.34070595,1.71897256 C6.44275241,1.94277708 6.53002477,2.17302757 6.6019622,2.40824438 C6.1418047,2.4957325 5.67506261,2.54408029 5.20674264,2.55276912 L5.22897721,2.53053454 Z M4.77316843,0.473836377 L4.77316843,2.53053454 C4.30900983,2.52725437 3.84597209,2.48448382 3.38906615,2.40268573 C3.46098848,2.16746376 3.54826122,1.93721229 3.6503224,1.71341392 C3.83813816,1.16961472 4.23964178,0.725953213 4.76205114,0.484953662 L4.77316843,0.473836377 Z M4.77316843,2.99190197 L4.77316843,4.75399202 L3.02775431,4.75399202 C3.03987197,4.11179604 3.11999302,3.47269097 3.26677599,2.84737724 C3.76158129,2.9427675 4.26375983,2.99484527 4.76760979,3.00301926 L4.77316843,2.99190197 Z M3.03331295,5.21535944 L4.76760979,5.21535944 L4.76760979,6.99412543 C4.2637632,7.00235572 3.76158954,7.05443299 3.26677599,7.14976745 C3.11803182,6.51538977 3.03789777,5.86686307 3.02775431,5.21535944 L3.03331295,5.21535944 Z M4.77316843,7.43881692 L4.77316843,9.4843978 C4.25075907,9.24339825 3.84925544,8.79973674 3.66143969,8.25593754 C3.55981394,8.03575953 3.4725461,7.8092345 3.40018344,7.57778302 C3.85301032,7.49137955 4.31227566,7.44303583 4.77316843,7.43325828 L4.77316843,7.43881692 Z M5.22897721,9.48995645 L5.22897721,7.44437557 C5.69530218,7.4511706 6.16020177,7.49766056 6.61863813,7.58334166 C6.5462608,7.81478804 6.45899332,8.04131213 6.35738187,8.26149619 C6.17259257,8.80840276 5.77038008,9.25485863 5.24565314,9.49551509 L5.22897721,9.48995645 Z M5.22897721,6.97744949 L5.22897721,5.19868352 L6.97994997,5.19868352 C6.96940935,5.84832579 6.88927792,6.4949678 6.74092829,7.12753287 C6.24245084,7.03163913 5.73653662,6.97955972 5.22897721,6.97189085 L5.22897721,6.97744949 Z M7.45243469,5.19868352 L9.553602,5.19868352 C9.50794584,6.15481902 9.15949857,7.07168305 8.55860479,7.81680469 C8.13914231,7.56016657 7.68121935,7.37249323 7.20229572,7.26094032 C7.35834031,6.59370908 7.4422018,5.91163564 7.45243469,5.22647673 L7.45243469,5.19868352 Z M8.25843802,1.80235222 C7.89388594,2.02263713 7.49860605,2.1874932 7.0855642,2.29151286 C6.91338905,1.68116854 6.61619792,1.1132874 6.21285714,0.623919756 C6.98903907,0.835868379 7.69497766,1.25022364 8.25843802,1.8245868 L8.25843802,1.80235222 Z M3.81152307,0.601685186 C3.40804642,1.09096268 3.11083964,1.65887372 2.93881601,2.26927829 C2.52592942,2.16479198 2.13071658,1.99996387 1.76594219,1.78011765 C2.33328626,1.21789738 3.03887487,0.815251698 3.81152307,0.612802471 L3.81152307,0.601685186 Z M1.77150083,8.17811653 C2.13461236,7.96020095 2.52798044,7.79723417 2.93881601,7.69451453 C3.11068774,8.30497949 3.40791022,8.87292053 3.81152307,9.36210764 C3.03792575,9.15083983 2.33406473,8.73849619 1.77150083,8.16699925 L1.77150083,8.17811653 Z M6.21841579,9.37322492 C6.62202864,8.88403782 6.91925111,8.31609677 7.09112284,7.70563182 C7.50355218,7.80883432 7.89868536,7.97175653 8.26399666,8.18923382 C7.70143276,8.76073076 6.99757175,9.17307441 6.22397443,9.38434222 L6.21841579,9.37322492 Z"
                      id="形状"></path>
            </g>
        </g>
    </g>
</svg>
