<?xml version="1.0" encoding="UTF-8"?>
<svg width="20px" height="20px" viewBox="0 0 20 20" version="1.1" xmlns="http://www.w3.org/2000/svg" xmlns:xlink="http://www.w3.org/1999/xlink">
    <!-- Generator: Sketch 61.2 (89653) - https://sketch.com -->
    <title>even</title>
    <desc>Created with Sketch.</desc>
    <g id="页面-1" stroke="none" stroke-width="1" fill="none" fill-rule="evenodd">
        <g id="已结束" transform="translate(-980.000000, -262.000000)" fill="#0086DC">
            <g id="编组-6备份" transform="translate(980.000000, 179.000000)">
                <path d="M20,83 L20,103 L0,103 L0,83 L20,83 Z M7.012,87.076 C6.448,88.912 5.56,90.52 4.36,91.9 L4.732,93.124 C5.14,92.692 5.512,92.26 5.86,91.804 L5.86,98.26 L6.964,98.26 L6.964,90.124 C7.42,89.308 7.792,88.468 8.08,87.58 L7.012,87.076 Z M14.62,87.568 L8.476,87.568 L8.476,92.38 L10.96,92.38 L10.96,93.136 L7.924,93.136 L7.924,98.236 L8.992,98.236 L8.992,94.096 L10.948,94.096 L10.948,95.5 C10.444,95.536 9.892,95.572 9.268,95.596 L9.58,96.64 C10.984,96.52 12.088,96.352 12.88,96.136 C12.928,96.34 12.964,96.556 13.012,96.772 L13.828,96.556 C13.648,95.728 13.444,94.996 13.204,94.348 L12.448,94.6 C12.52,94.816 12.58,95.044 12.652,95.284 C12.424,95.32 12.172,95.356 11.896,95.404 L11.896,94.096 L14.092,94.096 L14.092,96.7 C14.092,97.024 13.924,97.192 13.612,97.192 L12.604,97.156 L12.88,98.188 L13.96,98.188 C14.74,98.188 15.136,97.768 15.136,96.94 L15.136,93.136 L12.04,93.136 L12.04,92.38 L14.62,92.38 L14.62,87.568 Z M13.528,90.448 L13.528,91.456 L12.04,91.456 L12.04,90.448 L13.528,90.448 Z M10.96,90.448 L10.96,91.456 L9.556,91.456 L9.556,90.448 L10.96,90.448 Z M10.96,88.528 L10.96,89.512 L9.556,89.512 L9.556,88.528 L10.96,88.528 Z M13.528,88.528 L13.528,89.512 L12.04,89.512 L12.04,88.528 L13.528,88.528 Z" id="even"></path>
            </g>
        </g>
    </g>
</svg>