<?xml version="1.0" encoding="UTF-8"?>
<svg width="20px" height="20px" viewBox="0 0 20 20" version="1.1" xmlns="http://www.w3.org/2000/svg" xmlns:xlink="http://www.w3.org/1999/xlink">
    <!-- Generator: Sketch 61.2 (89653) - https://sketch.com -->
    <title>odd</title>
    <desc>Created with Sketch.</desc>
    <g id="页面-1" stroke="none" stroke-width="1" fill="none" fill-rule="evenodd">
        <g id="已结束" transform="translate(-980.000000, -388.000000)" fill="#E05300">
            <g id="编组-6备份-3" transform="translate(980.000000, 366.000000)">
                <path d="M20,22 L20,42 L0,42 L0,22 L20,22 Z M15.34,30.732 L4.66,30.732 L4.66,31.824 L12.736,31.824 L12.736,35.724 C12.736,36.036 12.52,36.204 12.1,36.204 C11.776,36.204 11.44,36.18 11.08,36.132 L11.32,37.212 L12.484,37.212 C13.408,37.212 13.876,36.804 13.876,35.988 L13.876,31.824 L15.34,31.824 L15.34,30.732 Z M10.924,32.664 L6.124,32.664 L6.124,35.856 L10.924,35.856 L10.924,32.664 Z M9.844,33.624 L9.844,34.872 L7.192,34.872 L7.192,33.624 L9.844,33.624 Z M10.684,26.208 L9.544,26.208 C9.544,26.508 9.532,26.772 9.532,27 L5.236,27 L5.236,28.068 L9.16,28.068 C8.584,28.812 7.336,29.316 5.416,29.58 L6.028,30.588 C7.54,30.288 8.704,29.808 9.508,29.136 C11.02,29.496 12.508,29.964 13.948,30.564 L14.572,29.604 C13.228,29.124 11.764,28.716 10.18,28.38 C10.24,28.284 10.3,28.176 10.36,28.068 L14.776,28.068 L14.776,27 L10.672,27 C10.672,26.82 10.684,26.556 10.684,26.208 Z" id="odd"></path>
            </g>
        </g>
    </g>
</svg>