<?xml version="1.0" encoding="UTF-8"?>
<svg width="16px" height="16px" viewBox="0 0 16 16" version="1.1" xmlns="http://www.w3.org/2000/svg" xmlns:xlink="http://www.w3.org/1999/xlink">
    <title>形状</title>
    <g id="页面-1" stroke="none" stroke-width="1" fill="none" fill-rule="evenodd">
        <g id="已结束" transform="translate(-1185.000000, -76.000000)" fill="#AF946F" fill-rule="nonzero">
            <path d="M1193,76 C1188.584,76 1185,79.584 1185,84 C1185,88.416 1188.584,92 1193,92 C1197.416,92 1201,88.416 1201,84 C1201,79.584 1197.416,76 1193,76 Z M1193.8,89.6 L1192.2,89.6 L1192.2,88 L1193.8,88 L1193.8,89.6 Z M1195.456,83.4 L1194.736,84.136 C1194.336,84.544 1194.048,84.912 1193.904,85.488 C1193.84,85.744 1193.8,86.032 1193.8,86.4 L1192.2,86.4 L1192.2,86 C1192.2,85.632 1192.264,85.28 1192.376,84.952 C1192.536,84.488 1192.8,84.072 1193.136,83.736 L1194.128,82.728 C1194.496,82.376 1194.672,81.848 1194.568,81.288 C1194.464,80.712 1194.016,80.224 1193.456,80.064 C1192.568,79.816 1191.744,80.32 1191.48,81.08 C1191.384,81.376 1191.136,81.6 1190.824,81.6 L1190.584,81.6 C1190.12,81.6 1189.8,81.152 1189.928,80.704 C1190.272,79.528 1191.272,78.632 1192.512,78.44 C1193.728,78.248 1194.888,78.88 1195.608,79.88 C1196.552,81.184 1196.272,82.584 1195.456,83.4 L1195.456,83.4 Z" id="形状"></path>
        </g>
    </g>
</svg>