<?xml version="1.0" encoding="utf-8"?>
<!-- Generator: Adobe Illustrator 22.1.0, SVG Export Plug-In . SVG Version: 6.00 Build 0)  -->
<svg version="1.1" id="图层_1" xmlns="http://www.w3.org/2000/svg" xmlns:xlink="http://www.w3.org/1999/xlink" x="0px"
     y="0px"
     viewBox="0 0 16 16" style="enable-background:new 0 0 16 16;" xml:space="preserve">
<style type="text/css">
	.st0{fill:#F6C94A;}
</style>
    <title>警告</title>
    <desc>Created with Sketch.</desc>
    <g id="页面-1">
	<g id="_x30_2-01跨链挖矿" transform="translate(-550.000000, -522.000000)">
		<g id="分组-5" transform="translate(534.000000, 497.000000)">
			<g id="警告" transform="translate(16.000000, 25.000000)">
				<g id="Mask">
					<path id="path-1_1_" class="st0" d="M8,0C3.6,0,0,3.6,0,8s3.6,8,8,8s8-3.6,8-8S12.4,0,8,0z M8,8C7.4,8,7,7.6,7,7.2V3.8
						C7,3.4,7.4,3,8,3s1,0.4,1,0.8v3.3C9,7.6,8.6,8,8,8z M9,12H7v-2h2V12z" />
				</g>
			</g>
		</g>
	</g>
</g>
</svg>
