<?xml version="1.0" encoding="UTF-8"?>
<svg width="14px" height="14px" viewBox="0 0 14 14" version="1.1" xmlns="http://www.w3.org/2000/svg"
     xmlns:xlink="http://www.w3.org/1999/xlink">
    <!-- Generator: Sketch 52.6 (67491) - http://www.bohemiancoding.com/sketch -->
    <title>24px (29)</title>
    <desc>Created with Sketch.</desc>
    <g id="组件" stroke="none" stroke-width="1" fill="none" fill-rule="evenodd">
        <g id="投票导航" transform="translate(-17.000000, -11.000000)">
            <g id="24px-(29)" transform="translate(16.000000, 10.000000)">
                <polygon id="路径" points="0 0 16 0 16 16 0 16"></polygon>
                <path d="M7,1.71565774 L7,14.2843423 C7,14.740349 6.60666667,15.082354 6.19333333,14.9826025 C3.21333333,14.2700921 1,11.4129251 1,8 C1,4.58707489 3.21333333,1.72990795 6.19333333,1.01739748 C6.60666667,0.91764602 7,1.25965104 7,1.71565774 Z M9,1.68370975 L9,6.31929702 C9,6.69368366 9.30701295,7 9.68225101,7 L14.3147354,7 C14.751376,7 15.0788565,6.59838524 14.9833414,6.16954237 C14.403428,3.61009918 12.3907875,1.59521837 9.83234623,1.01662084 C9.4025281,0.92132242 9,1.24805985 9,1.68370975 Z M9,9.68673091 L9,14.317065 C9,14.7522213 9.40208753,15.0785884 9.83143523,14.983398 C12.3938913,14.4054561 14.404329,12.3860593 14.9836076,9.82951654 C15.0790182,9.40795895 14.7450811,9 14.3157334,9 L9.68831933,9 C9.30667693,9.00679932 9,9.31276853 9,9.68673091 Z"
                      id="形状" fill="#F6C94A" fill-rule="nonzero"></path>
            </g>
        </g>
    </g>
</svg>