<?xml version="1.0" encoding="UTF-8"?>
<svg width="40px" height="18px" viewBox="0 0 40 18" version="1.1" xmlns="http://www.w3.org/2000/svg"
     xmlns:xlink="http://www.w3.org/1999/xlink">
    <!-- Generator: Sketch 60 (88103) - https://sketch.com -->
    <title>合并形状备份</title>
    <desc>Created with Sketch.</desc>
    <g id="页面-1" stroke="none" stroke-width="1" fill="none" fill-rule="evenodd">
        <g id="05-01币币交易" transform="translate(-1208.000000, -836.000000)" fill="#DEDEDE">
            <path d="M1239,836 C1243.97056,836 1248,840.029437 1248,845 C1248,849.970563 1243.97056,854 1239,854 L1217,854 C1212.02944,854 1208,849.970563 1208,845 C1208,840.029437 1212.02944,836 1217,836 L1239,836 Z M1225.17157,840.757359 C1224.78105,840.366835 1224.14788,840.366835 1223.75736,840.757359 C1223.36684,841.147884 1223.36684,841.781049 1223.75736,842.171573 L1223.75736,842.171573 L1226.58508,844.999293 L1223.75736,847.828427 C1223.36684,848.218951 1223.36684,848.852116 1223.75736,849.242641 C1224.14788,849.633165 1224.78105,849.633165 1225.17157,849.242641 L1225.17157,849.242641 L1227.99929,846.413506 L1230.82843,849.242641 C1231.21895,849.633165 1231.85212,849.633165 1232.24264,849.242641 C1232.63316,848.852116 1232.63316,848.218951 1232.24264,847.828427 L1232.24264,847.828427 L1229.41351,844.999293 L1232.24264,842.171573 C1232.63316,841.781049 1232.63316,841.147884 1232.24264,840.757359 C1231.85212,840.366835 1231.21895,840.366835 1230.82843,840.757359 L1230.82843,840.757359 L1227.99929,843.585079 Z"
                  id="合并形状备份"></path>
        </g>
    </g>
</svg>
