<?xml version="1.0" encoding="UTF-8"?>
<svg width="40px" height="18px" viewBox="0 0 40 18" version="1.1" xmlns="http://www.w3.org/2000/svg"
     xmlns:xlink="http://www.w3.org/1999/xlink">
    <!-- Generator: Sketch 60 (88103) - https://sketch.com -->
    <title>取消</title>
    <desc>Created with Sketch.</desc>
    <g id="页面-1" stroke="none" stroke-width="1" fill="none" fill-rule="evenodd">
        <g id="05-01币币交易" transform="translate(-1208.000000, -795.000000)" fill="#EA754B">
            <g id="取消" transform="translate(1208.000000, 795.000000)">
                <path d="M31,0 C35.9705627,-9.13077564e-16 40,4.02943725 40,9 C40,13.9705627 35.9705627,18 31,18 L9,18 C4.02943725,18 6.08718376e-16,13.9705627 0,9 C-6.08718376e-16,4.02943725 4.02943725,9.13077564e-16 9,0 L31,0 Z M17.1715729,4.75735931 C16.7810486,4.36683502 16.1478836,4.36683502 15.7573593,4.75735931 C15.366835,5.1478836 15.366835,5.78104858 15.7573593,6.17157288 L15.7573593,6.17157288 L18.5850793,8.99929289 L15.7573593,11.8284271 C15.366835,12.2189514 15.366835,12.8521164 15.7573593,13.2426407 C16.1478836,13.633165 16.7810486,13.633165 17.1715729,13.2426407 L17.1715729,13.2426407 L19.9992929,10.4135065 L22.8284271,13.2426407 C23.2189514,13.633165 23.8521164,13.633165 24.2426407,13.2426407 C24.633165,12.8521164 24.633165,12.2189514 24.2426407,11.8284271 L24.2426407,11.8284271 L21.4135065,8.99929289 L24.2426407,6.17157288 C24.633165,5.78104858 24.633165,5.1478836 24.2426407,4.75735931 C23.8521164,4.36683502 23.2189514,4.36683502 22.8284271,4.75735931 L22.8284271,4.75735931 L19.9992929,7.58507933 Z"
                      id="合并形状"></path>
            </g>
        </g>
    </g>
</svg>
