<?xml version="1.0" encoding="UTF-8"?>
<svg width="16px" height="12px" viewBox="0 0 16 12" version="1.1" xmlns="http://www.w3.org/2000/svg" xmlns:xlink="http://www.w3.org/1999/xlink">
    <!-- Generator: Sketch 52.6 (67491) - http://www.bohemiancoding.com/sketch -->
    <title>合并形状</title>
    <desc>Created with Sketch.</desc>
    <g id="页面-1" stroke="none" stroke-width="1" fill="none" fill-rule="evenodd">
        <g id="06-04-节点部署3" transform="translate(-278.000000, -592.000000)" fill="#F6C94A" fill-rule="nonzero">
            <g id="分组-3-copy" transform="translate(16.000000, 498.000000)">
                <g id="分组-8" transform="translate(16.000000, 80.000000)">
                    <g id="分组-copy-2" transform="translate(254.000000, 20.000000) rotate(-90.000000) translate(-254.000000, -20.000000) translate(246.000000, 12.000000)">
                        <path d="M9,12.5857864 L12.2928932,9.29289322 C12.6834175,8.90236893 13.3165825,8.90236893 13.7071068,9.29289322 C14.0976311,9.68341751 14.0976311,10.3165825 13.7071068,10.7071068 L8.70710678,15.7071068 C8.31658249,16.0976311 7.68341751,16.0976311 7.29289322,15.7071068 L2.29289322,10.7071068 C1.90236893,10.3165825 1.90236893,9.68341751 2.29289322,9.29289322 C2.68341751,8.90236893 3.31658249,8.90236893 3.70710678,9.29289322 L7,12.5857864 L7,1 C7,0.44771525 7.44771525,1.77635684e-15 8,1.77635684e-15 C8.55228475,1.77635684e-15 9,0.44771525 9,1 L9,12.5857864 Z" id="合并形状"></path>
                    </g>
                </g>
            </g>
        </g>
    </g>
</svg>