<?xml version="1.0" encoding="UTF-8"?>
<svg width="14px" height="14px" viewBox="0 0 14 14" version="1.1" xmlns="http://www.w3.org/2000/svg"
     xmlns:xlink="http://www.w3.org/1999/xlink">
    <!-- Generator: Sketch 52.6 (67491) - http://www.bohemiancoding.com/sketch -->
    <title>复制</title>
    <desc>Created with Sketch.</desc>
    <g id="页面-1" stroke="none" stroke-width="1" fill="none" fill-rule="evenodd">
        <g id="01-05资产弹窗" transform="translate(-872.000000, -1773.000000)" fill="#F6C94A" fill-rule="nonzero">
            <g id="分组" transform="translate(531.000000, 1593.000000)">
                <g id="复制" transform="translate(341.000000, 180.000000)">
                    <path d="M2.4,3.2 C1.7372583,3.2 1.2,3.7372583 1.2,4.4 L1.2,11.6 C1.2,12.2627417 1.7372583,12.8 2.4,12.8 L9.6,12.8 C10.2627417,12.8 10.8,12.2627417 10.8,11.6 L10.8,4.4 C10.8,3.7372583 10.2627417,3.2 9.6,3.2 L2.4,3.2 Z M2.4,2 L9.6,2 C10.9254834,2 12,3.0745166 12,4.4 L12,11.6 C12,12.9254834 10.9254834,14 9.6,14 L2.4,14 C1.0745166,14 0,12.9254834 0,11.6 L0,4.4 C0,3.0745166 1.0745166,2 2.4,2 Z M3.61111111,1.22222222 C3.27360376,1.22222222 3,0.948618458 3,0.611111111 C3,0.273603764 3.27360376,0 3.61111111,0 L10.9444444,0 C12.6319812,0 14,1.36801882 14,3.05555556 L14,10.3888889 C14,10.7263962 13.7263962,11 13.3888889,11 C13.0513815,11 12.7777778,10.7263962 12.7777778,10.3888889 L12.7777778,3.05555556 C12.7777778,2.04303351 11.9569665,1.22222222 10.9444444,1.22222222 L3.61111111,1.22222222 Z"
                          id="合并形状"></path>
                </g>
            </g>
        </g>
    </g>
</svg>