<?xml version="1.0" encoding="UTF-8"?>
<svg width="13px" height="16px" viewBox="0 0 13 16" version="1.1" xmlns="http://www.w3.org/2000/svg" xmlns:xlink="http://www.w3.org/1999/xlink">
    <!-- Generator: Sketch 52.6 (67491) - http://www.bohemiancoding.com/sketch -->
    <title>delete_forever-24px</title>
    <desc>Created with Sketch.</desc>
    <g id="页面-1" stroke="none" stroke-width="1" fill="none" fill-rule="evenodd">
        <g id="06-04-节点部署3" transform="translate(-1193.000000, -516.000000)">
            <g id="分组-3-copy" transform="translate(16.000000, 498.000000)">
                <g id="分组" transform="translate(1173.000000, 16.000000)">
                    <g id="delete_forever-24px">
                        <polygon id="路径" points="0 0 20 0 20 20 0 20"></polygon>
                        <path d="M4.88888889,16.2222222 C4.88888889,17.2 5.68888889,18 6.66666667,18 L13.7777778,18 C14.7555556,18 15.5555556,17.2 15.5555556,16.2222222 L15.5555556,7.33333333 C15.5555556,6.35555556 14.7555556,5.55555556 13.7777778,5.55555556 L6.66666667,5.55555556 C5.68888889,5.55555556 4.88888889,6.35555556 4.88888889,7.33333333 L4.88888889,16.2222222 Z M7.70666667,9.26222222 C8.05333333,8.91555556 8.61333333,8.91555556 8.96,9.26222222 L10.2222222,10.5244444 L11.4844444,9.26222222 C11.8311111,8.91555556 12.3911111,8.91555556 12.7377778,9.26222222 C13.0844444,9.60888889 13.0844444,10.1688889 12.7377778,10.5155556 L11.4755556,11.7777778 L12.7377778,13.04 C13.0844444,13.3866667 13.0844444,13.9466667 12.7377778,14.2933333 C12.3911111,14.64 11.8311111,14.64 11.4844444,14.2933333 L10.2222222,13.0311111 L8.96,14.2933333 C8.61333333,14.64 8.05333333,14.64 7.70666667,14.2933333 C7.36,13.9466667 7.36,13.3866667 7.70666667,13.04 L8.96888889,11.7777778 L7.70666667,10.5155556 C7.36,10.1777778 7.36,9.60888889 7.70666667,9.26222222 Z M13.3333333,2.88888889 L12.7022222,2.25777778 C12.5422222,2.09777778 12.3111111,2 12.08,2 L8.36444444,2 C8.13333333,2 7.90222222,2.09777778 7.74222222,2.25777778 L7.11111111,2.88888889 L4.88888889,2.88888889 C4.4,2.88888889 4,3.28888889 4,3.77777778 C4,4.26666667 4.4,4.66666667 4.88888889,4.66666667 L15.5555556,4.66666667 C16.0444444,4.66666667 16.4444444,4.26666667 16.4444444,3.77777778 C16.4444444,3.28888889 16.0444444,2.88888889 15.5555556,2.88888889 L13.3333333,2.88888889 Z" id="形状" fill="#F6C94A" fill-rule="nonzero"></path>
                    </g>
                </g>
            </g>
        </g>
    </g>
</svg>