<?xml version="1.0" encoding="UTF-8"?>
<svg width="18px" height="12px" viewBox="0 0 18 12" version="1.1" xmlns="http://www.w3.org/2000/svg" xmlns:xlink="http://www.w3.org/1999/xlink">
    <!-- Generator: Sketch 52.6 (67491) - http://www.bohemiancoding.com/sketch -->
    <title>cloud_upload-24px</title>
    <desc>Created with Sketch.</desc>
    <g id="页面-1" stroke="none" stroke-width="1" fill="none" fill-rule="evenodd">
        <g id="06-02-节点部署1" transform="translate(-1179.000000, -148.000000)">
            <g id="分组-3" transform="translate(16.000000, 128.000000)">
                <g id="分组" transform="translate(1079.000000, 16.000000)">
                    <g id="cloud_upload-24px" transform="translate(83.000000, 0.000000)">
                        <polygon id="路径" points="0 0 20 0 20 20 0 20"></polygon>
                        <path d="M15.5125,8.53 C15.0025,5.9425 12.73,4 10,4 C7.8325,4 5.95,5.23 5.0125,7.03 C2.755,7.27 1,9.1825 1,11.5 C1,13.9825 3.0175,16 5.5,16 L15.25,16 C17.32,16 19,14.32 19,12.25 C19,10.27 17.4625,8.665 15.5125,8.53 Z M11.5,10.75 L11.5,13.75 L8.5,13.75 L8.5,10.75 L6.25,10.75 L9.7375,7.2625 C9.8875,7.1125 10.12,7.1125 10.27,7.2625 L13.75,10.75 L11.5,10.75 Z" id="形状" fill="#F6C94A" fill-rule="nonzero"></path>
                    </g>
                </g>
            </g>
        </g>
    </g>
</svg>