<?xml version="1.0" encoding="UTF-8"?>
<svg width="12px" height="12px" viewBox="0 0 12 12" version="1.1" xmlns="http://www.w3.org/2000/svg"
     xmlns:xlink="http://www.w3.org/1999/xlink">
    <!-- Generator: Sketch 60 (88103) - https://sketch.com -->
    <title>链接 copy 2</title>
    <desc>Created with Sketch.</desc>
    <defs>
        <path d="M7.11434345,5.06524421 C7.4548658,5.03953429 7.76173188,5.22543677 7.90427612,5.51220123 L7.90427612,5.51220123 C7.91417502,5.53197809 7.91813459,5.54384421 7.92407393,5.55571032 C8.43485746,6.66716983 8.23687935,8.02188471 7.32222047,8.9375533 L7.32222047,8.9375533 L5.1385219,11.1189409 C3.96253191,12.2936864 2.05798247,12.2936864 0.881992489,11.1189409 C-0.293997496,9.94419545 -0.293997496,8.04166156 0.881992489,6.86691611 L0.881992489,6.86691611 L1.709541,6.04024338 C1.84614589,5.89587231 2.03224532,5.79698801 2.24606168,5.78116652 C2.69151243,5.74556817 3.08152931,6.0797971 3.11716537,6.52477644 C3.13696318,6.78978636 3.02807522,7.0369971 2.83999602,7.19916735 L2.83999602,7.19916735 L2.84593536,7.20510041 L2.0342251,8.01595165 C1.49374485,8.55585991 1.49374485,9.43395248 2.0342251,9.97386074 C2.57470535,10.513769 3.45372816,10.513769 3.99420841,9.97386074 L3.99420841,9.97386074 L6.17196764,7.79445082 C6.58772167,7.37715908 6.68671073,6.75814338 6.46101568,6.24987809 C6.41152115,6.15494917 6.37984466,6.05013181 6.36994575,5.93542602 C6.33430969,5.49044669 6.6688927,5.10084255 7.11434345,5.06524421 Z M6.86296294,0.881059092 C8.03895293,-0.293686364 9.94350236,-0.293686364 11.1194923,0.881059092 C12.2935026,2.05382686 12.2935026,3.95833844 11.1194923,5.13308389 L11.1194923,5.13308389 L10.2919438,5.95975662 C10.1553389,6.10412769 9.96923952,6.20301199 9.75542316,6.21883348 C9.3099724,6.25443183 8.91995552,5.9202029 8.88431946,5.47522356 C8.86452165,5.21021364 8.97340961,4.9630029 9.16148882,4.80083265 L9.16148882,4.80083265 L9.15554948,4.79489959 L9.96725974,3.98404835 C10.50774,3.44414009 10.50774,2.56604752 9.96725974,2.02613926 C9.42677949,1.48623099 8.54775667,1.48623099 8.00727643,2.02613926 L8.00727643,2.02613926 L5.82753742,4.20357149 C5.41178338,4.62086323 5.31279432,5.23987893 5.53848937,5.74814422 C5.5879839,5.84307315 5.6196604,5.9478905 5.6295593,6.06259629 C5.66519536,6.50757563 5.33061235,6.89717976 4.8851616,6.93277811 C4.54463925,6.95848803 4.23777318,6.77258555 4.09522894,6.48582108 L4.09522894,6.48582108 C4.08533003,6.46604422 4.08137047,6.45417811 4.07543112,6.44231199 C3.56662738,5.33085249 3.76460549,3.97613761 4.67926437,3.0624467 L4.67926437,3.0624467 Z"
              id="path-1"></path>
    </defs>
    <g id="页面-1" stroke="none" stroke-width="1" fill="none" fill-rule="evenodd" opacity="0.300000012">
        <g id="01-01资产" transform="translate(-1242.000000, -321.000000)">
            <g id="分组-2" transform="translate(958.000000, 276.000000)">
                <g id="链接" transform="translate(284.000000, 45.000000)">
                    <g id="矩形">
                        <mask id="mask-2" fill="white">
                            <use xlink:href="#path-1"></use>
                        </mask>
                        <use id="Mask" fill="#000000" xlink:href="#path-1"></use>
                    </g>
                </g>
            </g>
        </g>
    </g>
</svg>
