<?xml version="1.0" encoding="UTF-8"?>
<svg width="56px" height="56px" viewBox="0 0 56 56" version="1.1" xmlns="http://www.w3.org/2000/svg"
     xmlns:xlink="http://www.w3.org/1999/xlink">
    <!-- Generator: Sketch 52.6 (67491) - http://www.bohemiancoding.com/sketch -->
    <title>Shape</title>
    <desc>Created with Sketch.</desc>
    <g id="页面-1" stroke="none" stroke-width="1" fill="none" fill-rule="evenodd">
        <g id="01-03资产样式" transform="translate(-1086.000000, -380.000000)" fill="#F2F3F4" fill-rule="nonzero">
            <g id="分组-copy-2" transform="translate(964.000000, 72.000000)">
                <g id="分组-2" transform="translate(108.000000, 308.000000)">
                    <g id="Shape" transform="translate(14.000000, 0.000000)">
                        <path d="M43.8228441,27.9142511 L48.8290001,22.8757322 L45.0224759,19.0421776 C44.8448612,18.8737885 44.5679769,18.8737885 44.3903622,19.0421776 L40.3577536,23.1083508 C40.0356572,23.4340959 39.5258373,23.4736392 39.1581217,23.2013982 L32.6801096,16.6555108 C32.403997,16.2903258 32.4333882,15.7766384 32.7493192,15.445894 L40.6853453,7.44381415 C42.7625789,5.35813688 46.1121993,5.32919866 48.2245702,7.37868094 C49.253542,8.41457563 49.8317493,9.8205359 49.8317493,11.2866734 C49.8317493,12.752811 49.253542,14.1587713 48.2245702,15.1946659 L46.637365,16.7904296 L50.4438891,20.6239841 C50.6215039,20.7923733 50.8983881,20.7923733 51.0760029,20.6239841 L53.1661307,18.5164596 C55.5705625,16.1159073 56.537422,12.6126116 55.7084274,9.30476296 C54.0981524,3.0938463 49.2996249,1.89021772e-05 44.4872555,1.89021772e-05 C41.5172277,-0.00546704181 38.6676191,1.18338022 36.5696853,3.30320304 L28.0015454,11.9473103 L23.0046173,6.90413899 L18.9074131,11.0587072 L23.3137532,15.4970701 C23.6262213,15.8313971 23.6609921,16.3417173 23.3968046,16.7159916 L16.9372484,23.1874411 C16.5720677,23.5027236 16.0280059,23.4824804 15.6868629,23.1409174 L7.71853896,15.1248804 C5.65063436,13.0319446 5.62193012,9.65593451 7.6539434,7.52755684 C8.68068385,6.48887636 10.0752647,5.90506555 11.5296771,5.90506555 C12.9840896,5.90506555 14.3786704,6.48887636 15.4054108,7.52755684 L16.6696382,8.83952576 C16.847253,9.00791492 17.1241372,9.00791492 17.301752,8.83952576 L21.1036622,5.00131883 L19.4334055,3.30785541 C15.0430558,-1.00171277 8.03293105,-0.953223152 3.70163091,3.41667341 C-0.629669239,7.78656998 -0.673673434,14.855069 3.60287887,19.2794486 L12.1664048,27.9142511 L7.48322655,32.6410611 C7.31622737,32.8201541 7.31622737,33.099343 7.48322655,33.278436 L11.2851368,37.1073382 L16.2820649,32.0688193 L23.8858853,39.731276 L15.3177454,48.384688 C13.2405118,50.4703655 9.89089144,50.4993037 7.77852055,48.4498212 C6.75260032,47.4108419 6.17853868,46.0031451 6.18286617,44.5370056 C6.18719366,43.0708661 6.76955504,41.6666398 7.80159039,40.6338362 L9.06581782,39.3590863 C9.232817,39.1799932 9.232817,38.9008044 9.06581782,38.7217113 L5.26390761,34.8928091 L2.85080198,37.3120426 C0.426660485,39.7163615 -0.545359993,43.2397981 0.299277284,46.5609582 C1.93723617,52.7393082 6.71269378,55.8284832 11.5250631,55.8284832 C14.4956543,55.8322219 17.3451683,54.6417394 19.4426334,52.5206467 L28.0015454,43.8858443 L33.0030874,48.9243632 L37.1187475,44.7744473 L32.5970582,40.2151227 C32.3492221,39.9607109 32.3332549,39.5582073 32.5601465,39.2846483 L39.255015,32.5107946 C39.5251501,32.280756 39.9242849,32.294842 40.1778088,32.5433612 L48.2845518,40.7082742 C50.3549101,42.8001749 50.3836316,46.1782125 48.3491474,48.3055977 C47.3224069,49.3442783 45.9278261,49.9280892 44.4734136,49.9280892 C43.0190012,49.9280892 41.6244204,49.3442783 40.5976799,48.3055977 L39.0197026,46.7098341 L34.9040426,50.8597499 L36.8188396,52.7951367 C39.8085632,55.8572135 44.3208422,56.8272107 48.2891658,55.2608939 C53.2261123,53.237112 55.6715157,48.8964489 55.6715157,44.5604382 C55.6776744,41.5641803 54.4986245,38.6891406 52.3955979,36.5723154 L43.8228441,27.9142511 Z M33.801304,28.8819445 C33.4542392,29.4637029 33.0164501,29.9852536 32.5047788,30.426532 L30.410037,32.5387089 C29.9699067,33.0534017 29.4531286,33.4960052 28.8781994,33.8506778 C28.3207122,34.1112276 27.6777646,34.1112276 27.1202774,33.8506778 C26.544502,33.4971852 26.0275522,33.0544346 25.5884397,32.5387089 L23.493698,30.426532 C22.9820267,29.9852536 22.5442375,29.4637029 22.1971727,28.8819445 C21.9342924,28.3208221 21.9342924,27.6705131 22.1971727,27.1093907 C22.5488496,26.5378207 22.9862099,26.0246279 23.493698,25.5880651 L25.5884397,23.4758882 C26.0255672,22.9529834 26.5426882,22.5038039 27.1202774,22.1453098 C27.6777646,21.8847599 28.3207122,21.8847599 28.8781994,22.1453098 C29.4532382,22.4979533 29.970087,22.9390477 30.410037,23.4526263 L32.5047788,25.5880651 C33.0141181,26.031677 33.4515714,26.5528276 33.801304,27.1326526 C34.0569772,27.6872549 34.0569772,28.3273422 33.801304,28.8819445 Z"></path>
                    </g>
                </g>
            </g>
        </g>
    </g>
</svg>