<?xml version="1.0" encoding="UTF-8"?>
<svg width="14px" height="12px" viewBox="0 0 14 12" version="1.1" xmlns="http://www.w3.org/2000/svg"
     xmlns:xlink="http://www.w3.org/1999/xlink">
    <!-- Generator: Sketch 52.6 (67491) - http://www.bohemiancoding.com/sketch -->
    <title>分组</title>
    <desc>Created with Sketch.</desc>
    <g id="组件" stroke="none" stroke-width="1" fill="none" fill-rule="evenodd">
        <g id="投票导航" transform="translate(-17.000000, -32.000000)">
            <g id="分组" transform="translate(16.000000, 30.000000)">
                <rect id="矩形" x="0" y="0" width="16" height="16"></rect>
                <path d="M10,14 L6,14 L6,4 C6,2.8954305 6.8954305,2 8,2 C9.1045695,2 10,2.8954305 10,4 L10,14 Z M4,14 L1,14 L1,10.5 C1,9.67157288 1.67157288,9 2.5,9 C3.32842712,9 4,9.67157288 4,10.5 L4,14 Z M15,14 L12,14 L12,7.5 C12,6.67157288 12.6715729,6 13.5,6 C14.3284271,6 15,6.67157288 15,7.5 L15,14 Z"
                      id="合并形状" fill="#F6C94A" fill-rule="nonzero"></path>
            </g>
        </g>
    </g>
</svg>