<?xml version="1.0" encoding="UTF-8"?>
<svg width="40px" height="40px" viewBox="0 0 40 40" version="1.1" xmlns="http://www.w3.org/2000/svg"
     xmlns:xlink="http://www.w3.org/1999/xlink">
    <!-- Generator: Sketch 52.6 (67491) - http://www.bohemiancoding.com/sketch -->
    <title>资源 37 (2)</title>
    <desc>Created with Sketch.</desc>
    <g id="页面-1" stroke="none" stroke-width="1" fill="none" fill-rule="evenodd">
        <g id="03-02投票选举2" transform="translate(-812.000000, -431.000000)" fill="#CCCCCC" fill-rule="nonzero">
            <g id="分组-2-copy-4" transform="translate(648.000000, 376.000000)">
                <g id="资源-37-(2)" transform="translate(164.000000, 55.000000)">
                    <path d="M31.147541,19.6721311 L34.704918,16.1213115 L32,13.4196721 C31.8737869,13.3010024 31.6770328,13.3010024 31.5508197,13.4196721 L28.6852459,16.2852459 C28.456364,16.5148098 28.0940858,16.5426774 27.8327869,16.3508197 L23.2295082,11.7377049 C23.0333024,11.4803463 23.0541878,11.118333 23.2786885,10.8852459 L28.9180328,5.24590164 C30.394116,3.77605225 32.774358,3.7556585 34.2754098,5.2 C35.0065977,5.93003104 35.4174722,6.92086021 35.4174722,7.95409836 C35.4174722,8.98733651 35.0065977,9.97816568 34.2754098,10.7081967 L33.147541,11.8327869 L35.852459,14.5344262 C35.9786721,14.6530959 36.1754262,14.6530959 36.3016393,14.5344262 L37.7868852,13.0491803 C39.4954758,11.3574276 40.1825267,8.88853314 39.5934426,6.55737705 C38.4491803,2.18032787 35.0393443,8.61483329e-16 31.6196721,8.61483329e-16 C29.5091688,-0.00386613571 27.4842355,0.833955916 25.9934426,2.32786885 L19.904918,8.41967213 L16.3540984,4.86557377 L13.442623,7.79344262 L16.5737705,10.9213115 C16.7958105,11.1569233 16.8205186,11.5165638 16.6327869,11.7803279 L12.042623,16.3409836 C11.7831253,16.5631742 11.3965148,16.5489081 11.1540984,16.3081967 L5.49180328,10.6590164 C4.02234922,9.18405168 4.00195198,6.80485988 5.44590164,5.30491803 C6.17550393,4.57292373 7.16649376,4.16149193 8.2,4.16149193 C9.23350624,4.16149193 10.2244961,4.57292373 10.9540984,5.30491803 L11.852459,6.2295082 C11.9786721,6.34817789 12.1754262,6.34817789 12.3016393,6.2295082 L15.0032787,3.52459016 L13.8163934,2.33114754 C10.6966087,-0.705955181 5.71521047,-0.671782858 2.63738636,2.40783537 C-0.440437743,5.48745361 -0.471707148,10.4688709 2.56721311,13.5868852 L8.65245902,19.6721311 L5.32459016,23.0032787 C5.20592047,23.1294918 5.20592047,23.3262459 5.32459016,23.452459 L8.02622951,26.1508197 L11.5770492,22.6 L16.9803279,28 L10.8918033,34.0983607 C9.41572003,35.56821 7.03547807,35.5886038 5.53442623,34.1442623 C4.80540679,33.4120573 4.39747829,32.4200045 4.40055341,31.3867649 C4.40362852,30.3535254 4.81745483,29.3639182 5.55081967,28.6360656 L6.44918033,27.7377049 C6.56785003,27.6114918 6.56785003,27.4147377 6.44918033,27.2885246 L3.74754098,24.5901639 L2.03278689,26.295082 C0.310190699,27.9894892 -0.38052755,30.4725776 0.219672131,32.8131148 C1.38360656,37.1672131 4.77704918,39.3442623 8.19672131,39.3442623 C10.3076249,39.3468969 12.332491,38.5079227 13.8229508,37.0131148 L19.904918,30.9278689 L23.4590164,34.4786885 L26.3836066,31.5540984 L23.1704918,28.3409836 C22.9943794,28.1616907 22.983033,27.8780324 23.1442623,27.6852459 L27.9016393,22.9114754 C28.0935975,22.7493591 28.3772229,22.759286 28.557377,22.9344262 L34.3180328,28.6885246 C35.7892304,30.1627598 35.8096399,32.5433806 34.3639344,34.042623 C33.6343321,34.7746173 32.6433423,35.1860491 31.6098361,35.1860491 C30.5763298,35.1860491 29.58534,34.7746173 28.8557377,34.042623 L27.7344262,32.9180328 L24.8098361,35.842623 L26.1704918,37.2065574 C28.2949909,39.3645094 31.5014187,40.0481002 34.3213115,38.9442623 C37.8295082,37.5180328 39.5672131,34.4590164 39.5672131,31.4032787 C39.5715895,29.2917114 38.7337562,27.2655709 37.2393443,25.7737705 L31.147541,19.6721311 Z M24.0262295,20.3540984 C23.7796051,20.7640838 23.4685119,21.1316387 23.104918,21.442623 L21.6163934,22.9311475 C21.3036366,23.2938695 20.9364138,23.6057876 20.5278689,23.8557377 C20.1317181,24.0393562 19.6748392,24.0393562 19.2786885,23.8557377 C18.8695422,23.6066191 18.5021975,23.2945974 18.1901639,22.9311475 L16.7016393,21.442623 C16.3380455,21.1316387 16.0269523,20.7640838 15.7803279,20.3540984 C15.5935249,19.9586559 15.5935249,19.5003605 15.7803279,19.104918 C16.0302296,18.7021127 16.3410181,18.3404479 16.7016393,18.0327869 L18.1901639,16.5442623 C18.5007869,16.1757531 18.8682534,15.8592007 19.2786885,15.6065574 C19.6748392,15.4229389 20.1317181,15.4229389 20.5278689,15.6065574 C20.9364917,15.8550776 21.3037647,16.1659321 21.6163934,16.5278689 L23.104918,18.0327869 C23.4668548,18.3454156 23.7777093,18.7126886 24.0262295,19.1213115 C24.207911,19.512159 24.207911,19.9632508 24.0262295,20.3540984 Z"
                          id="形状"></path>
                </g>
            </g>
        </g>
    </g>
</svg>