<?xml version="1.0" encoding="UTF-8"?>
<svg width="64px" height="16px" viewBox="0 0 64 16" version="1.1" xmlns="http://www.w3.org/2000/svg"
     xmlns:xlink="http://www.w3.org/1999/xlink">
    <!-- Generator: Sketch 52.6 (67491) - http://www.bohemiancoding.com/sketch -->
    <title>分组 8 copy 20</title>
    <desc>Created with Sketch.</desc>
    <defs>
        <linearGradient x1="1.86117623%" y1="98.2721144%" x2="98.5978143%" y2="8.46340269%" id="linearGradient-1">
            <stop stop-color="#F2F3F4" offset="0%"></stop>
            <stop stop-color="#DCDCDC" offset="100%"></stop>
        </linearGradient>
    </defs>
    <g id="页面-1" stroke="none" stroke-width="1" fill="none" fill-rule="evenodd">
        <g id="03-02投票选举2" transform="translate(-965.000000, -715.000000)">
            <g id="分组-8-copy-20" transform="translate(965.000000, 715.000000)">
                <path d="M0.5,15.5 L55,15.5 C59.6944204,15.5 63.5,11.6944204 63.5,7 L63.5,0.5 L9,0.5 C4.30557963,0.5 0.5,4.30557963 0.5,9 L0.5,15.5 Z"
                      id="矩形-copy-3" stroke="#FFFFFF" fill="url(#linearGradient-1)"
                      transform="translate(32.000000, 8.000000) scale(1, -1) translate(-32.000000, -8.000000) "></path>
                <path d="M11.386,3.189 C12.134,3.772 12.761,4.344 13.267,4.916 L12.695,5.488 C12.255,4.938 11.639,4.344 10.847,3.706 L11.386,3.189 Z M17.634,12.902 C17.051,12.902 16.413,12.891 15.731,12.88 C15.038,12.869 14.477,12.803 14.048,12.682 C13.63,12.55 13.245,12.275 12.915,11.879 C12.772,11.692 12.64,11.604 12.508,11.604 C12.244,11.604 11.804,12.11 11.199,13.122 L10.605,12.583 C11.188,11.659 11.705,11.098 12.156,10.9 L12.156,7.556 L10.594,7.556 L10.594,6.83 L12.893,6.83 L12.893,10.955 C12.981,11.021 13.058,11.098 13.146,11.197 C13.41,11.516 13.685,11.747 13.971,11.89 C14.301,12.044 14.785,12.132 15.412,12.154 C15.984,12.165 16.688,12.176 17.524,12.176 C18.074,12.176 18.635,12.165 19.207,12.154 C19.779,12.143 20.219,12.132 20.527,12.11 L20.329,12.902 L17.634,12.902 Z M16.556,7.963 C17.161,8.315 17.722,8.667 18.25,9.041 C18.668,8.678 19.02,8.304 19.328,7.93 L19.9,8.37 C19.548,8.788 19.196,9.151 18.833,9.47 C19.361,9.888 19.856,10.317 20.318,10.757 L19.834,11.34 C18.866,10.328 17.623,9.382 16.105,8.502 L16.556,7.963 Z M15.126,5.818 L15.126,6.797 L18.8,6.797 L18.8,5.818 L15.126,5.818 Z M18.8,5.158 L18.8,4.179 L15.126,4.179 L15.126,5.158 L18.8,5.158 Z M15.126,7.512 L15.126,10.482 C15.852,10.35 16.578,10.185 17.293,9.976 L17.469,10.691 C16.611,10.922 15.533,11.153 14.224,11.373 L14.059,10.702 C14.257,10.625 14.356,10.515 14.356,10.372 L14.356,3.464 L19.581,3.464 L19.581,7.512 L15.126,7.512 Z M22.386,3.189 C23.123,3.761 23.739,4.333 24.245,4.905 L23.695,5.455 C23.244,4.905 22.628,4.322 21.847,3.706 L22.386,3.189 Z M28.777,12.902 C28.183,12.902 27.523,12.891 26.819,12.88 C26.115,12.869 25.532,12.803 25.092,12.682 C24.663,12.55 24.278,12.275 23.937,11.879 C23.783,11.692 23.64,11.604 23.508,11.604 C23.233,11.604 22.793,12.11 22.177,13.144 L21.583,12.605 C22.177,11.67 22.694,11.098 23.156,10.9 L23.156,7.556 L21.594,7.556 L21.594,6.83 L23.893,6.83 L23.893,10.944 C23.981,11.01 24.069,11.098 24.157,11.197 C24.421,11.516 24.707,11.747 25.015,11.89 C25.356,12.044 25.851,12.132 26.511,12.154 C27.083,12.165 27.809,12.176 28.667,12.176 C29.195,12.176 29.734,12.165 30.284,12.154 C30.812,12.143 31.23,12.132 31.527,12.11 L31.329,12.902 L28.777,12.902 Z M27.831,2.98 L28.601,2.98 L28.601,4.388 L30.801,4.388 L30.801,5.147 L28.601,5.147 L28.601,6.72 L31.186,6.72 L31.186,7.49 L29.338,7.49 L29.338,10.438 C29.338,10.636 29.448,10.746 29.69,10.746 L30.086,10.746 C30.24,10.746 30.35,10.713 30.438,10.647 C30.57,10.548 30.658,10.108 30.702,9.327 L31.395,9.558 C31.329,10.471 31.208,11.01 31.043,11.186 C30.889,11.34 30.625,11.428 30.251,11.439 L29.459,11.439 C29.173,11.439 28.964,11.362 28.821,11.208 C28.667,11.054 28.601,10.856 28.601,10.614 L28.601,7.49 L27.49,7.49 C27.457,8.249 27.347,8.909 27.16,9.459 C26.874,10.295 26.203,10.988 25.169,11.527 L24.652,10.9 C25.543,10.46 26.126,9.91 26.412,9.25 C26.599,8.766 26.709,8.172 26.742,7.49 L24.971,7.49 L24.971,6.72 L27.831,6.72 L27.831,5.147 L26.049,5.147 C25.851,5.565 25.631,5.939 25.389,6.291 L24.696,5.862 C25.29,5.037 25.719,4.124 25.983,3.134 L26.742,3.288 C26.632,3.673 26.511,4.036 26.379,4.388 L27.831,4.388 L27.831,2.98 Z M36.323,7.226 L33.199,7.226 L33.199,6.467 L41.394,6.467 C41.339,8.304 41.295,9.404 41.262,9.756 C41.218,10.35 41.108,10.746 40.91,10.955 C40.712,11.175 40.36,11.285 39.854,11.285 C39.535,11.285 39.15,11.285 38.688,11.307 L38.468,10.515 C38.864,10.515 39.26,10.526 39.667,10.526 C39.953,10.526 40.162,10.449 40.294,10.306 C40.426,10.152 40.514,9.789 40.547,9.217 C40.558,8.92 40.58,8.26 40.602,7.226 L37.126,7.226 L37.126,13.067 L36.323,13.067 L36.323,7.226 Z M32.715,4.091 L35.256,4.091 L35.256,3.024 L36.059,3.024 L36.059,4.091 L38.941,4.091 L38.941,3.024 L39.744,3.024 L39.744,4.091 L42.285,4.091 L42.285,4.861 L39.744,4.861 L39.744,5.906 L38.941,5.906 L38.941,4.861 L36.059,4.861 L36.059,5.895 L35.256,5.895 L35.256,4.861 L32.715,4.861 L32.715,4.091 Z M47.928,3.035 L48.709,3.035 L48.709,4.102 L52.977,4.102 L52.977,4.85 L48.709,4.85 L48.709,6.247 L52.218,6.247 L52.218,9.778 L44.936,9.778 L44.936,6.247 L47.928,6.247 L47.928,3.035 Z M51.426,9.041 L51.426,6.995 L45.728,6.995 L45.728,9.041 L51.426,9.041 Z M44.914,10.262 L45.585,10.581 C45.167,11.538 44.694,12.363 44.144,13.067 L43.495,12.594 C44.045,11.945 44.518,11.164 44.914,10.262 Z M47.312,10.581 C47.532,11.307 47.73,12.099 47.906,12.946 L47.114,13.122 C46.96,12.22 46.784,11.428 46.575,10.735 L47.312,10.581 Z M49.611,10.471 C49.941,11.219 50.227,12.044 50.469,12.924 L49.688,13.1 C49.468,12.165 49.193,11.34 48.863,10.625 L49.611,10.471 Z M51.866,10.251 C52.57,11.175 53.098,11.978 53.472,12.66 L52.812,13.122 C52.427,12.374 51.899,11.56 51.228,10.658 L51.866,10.251 Z"
                      id="退选节点" fill="#000000" opacity="0.319999993"></path>
            </g>
        </g>
    </g>
</svg>