<?xml version="1.0" encoding="UTF-8"?>
<svg width="42px" height="16px" viewBox="0 0 42 16" version="1.1" xmlns="http://www.w3.org/2000/svg"
     xmlns:xlink="http://www.w3.org/1999/xlink">
    <!-- Generator: Sketch 52.6 (67491) - http://www.bohemiancoding.com/sketch -->
    <title>议员</title>
    <desc>Created with Sketch.</desc>
    <defs>
        <linearGradient x1="0%" y1="100%" x2="100%" y2="9.6731494%" id="linearGradient-1">
            <stop stop-color="#97E5FD" offset="0%"></stop>
            <stop stop-color="#66C6F6" offset="100%"></stop>
        </linearGradient>
    </defs>
    <g id="页面-1" stroke="none" stroke-width="1" fill="none" fill-rule="evenodd">
        <g id="03-02投票选举2" transform="translate(-53.000000, -219.000000)">
            <g id="分组-4" transform="translate(17.000000, 219.000000)">
                <g id="议员" transform="translate(36.000000, 0.000000)">
                    <path d="M0.5,15.5 L33,15.5 C37.6944204,15.5 41.5,11.6944204 41.5,7 L41.5,0.5 L9,0.5 C4.30557963,0.5 0.5,4.30557963 0.5,9 L0.5,15.5 Z"
                          id="矩形-copy-3" stroke="#FFFFFF" fill="url(#linearGradient-1)"
                          transform="translate(21.000000, 8.000000) scale(1, -1) translate(-21.000000, -8.000000) "></path>
                    <path d="M16.248,2.969 C16.952,3.893 17.491,4.696 17.865,5.4 L17.238,5.829 C16.82,5.059 16.292,4.256 15.654,3.398 L16.248,2.969 Z M19.174,3.519 L19.922,3.673 C19.559,6.269 18.811,8.381 17.689,10.009 C18.536,11.032 19.537,11.835 20.681,12.429 L20.219,13.122 C19.075,12.495 18.074,11.67 17.216,10.636 C16.336,11.714 15.258,12.539 13.982,13.122 L13.553,12.451 C14.807,11.879 15.863,11.054 16.71,9.987 C15.632,8.513 14.796,6.709 14.18,4.575 L14.862,4.201 C15.412,6.247 16.182,7.963 17.172,9.349 C18.184,7.809 18.844,5.873 19.174,3.519 Z M11.826,3.123 C12.552,3.695 13.157,4.256 13.663,4.817 L13.124,5.367 C12.673,4.817 12.057,4.245 11.276,3.64 L11.826,3.123 Z M10.495,6.379 L12.871,6.379 L12.871,11.131 C13.223,10.823 13.586,10.482 13.982,10.086 L14.191,10.933 C13.564,11.549 12.893,12.11 12.167,12.616 L11.859,11.89 C12.024,11.758 12.112,11.604 12.112,11.428 L12.112,7.138 L10.495,7.138 L10.495,6.379 Z M30.207,7.006 L30.207,11.109 L29.426,11.109 L29.426,7.732 L23.585,7.732 L23.585,11.241 L22.804,11.241 L22.804,7.006 L30.207,7.006 Z M23.464,3.42 L29.547,3.42 L29.547,6.181 L23.464,6.181 L23.464,3.42 Z M28.777,5.488 L28.777,4.124 L24.234,4.124 L24.234,5.488 L28.777,5.488 Z M26.203,8.447 L27.006,8.513 C26.852,10.13 26.511,11.219 25.983,11.791 C25.411,12.473 24.102,12.913 22.056,13.1 L21.748,12.385 C23.53,12.275 24.718,11.923 25.301,11.318 C25.807,10.757 26.115,9.8 26.203,8.447 Z M27.292,10.999 C28.722,11.406 30.031,11.901 31.219,12.473 L30.79,13.133 C29.525,12.473 28.227,11.967 26.896,11.593 L27.292,10.999 Z"
                          fill="#000000" opacity="0.560000002"></path>
                </g>
            </g>
        </g>
    </g>
</svg>