<?xml version="1.0" encoding="UTF-8"?>
<svg width="61px" height="16px" viewBox="0 0 61 16" version="1.1" xmlns="http://www.w3.org/2000/svg"
     xmlns:xlink="http://www.w3.org/1999/xlink">
    <!-- Generator: Sketch 52.6 (67491) - http://www.bohemiancoding.com/sketch -->
    <title>分组 8 copy 7</title>
    <desc>Created with Sketch.</desc>
    <defs>
        <linearGradient x1="0%" y1="100%" x2="100%" y2="9.6731494%" id="linearGradient-1">
            <stop stop-color="#97E5FD" offset="0%"></stop>
            <stop stop-color="#66C6F6" offset="100%"></stop>
        </linearGradient>
    </defs>
    <g id="页面-1" stroke="none" stroke-width="1" fill="none" fill-rule="evenodd">
        <g id="03-01投票选举" transform="translate(-70.000000, -219.000000)">
            <g id="分组-4" transform="translate(17.000000, 219.000000)">
                <g id="分组-8-copy-7" transform="translate(53.000000, 0.000000)">
                    <path d="M0.5,15.5 L52,15.5 C56.6944204,15.5 60.5,11.6944204 60.5,7 L60.5,0.5 L9,0.5 C4.30557963,0.5 0.5,4.30557963 0.5,9 L0.5,15.5 Z"
                          id="矩形-copy-3" stroke="#FFFFFF" fill="url(#linearGradient-1)"
                          transform="translate(30.500000, 8.000000) scale(1, -1) translate(-30.500000, -8.000000) "></path>
                    <path d="M10.9250488,9.97509766 L11.9025879,9.97509766 C12.020752,10.7861328 12.7941895,11.3017578 13.8952637,11.3017578 C14.9372559,11.3017578 15.7053223,10.737793 15.7053223,9.96972656 C15.7053223,9.30908203 15.2219238,8.89013672 14.1530762,8.62158203 L13.1594238,8.36376953 C11.7575684,8.00927734 11.1506348,7.37548828 11.1506348,6.27441406 C11.1506348,4.95849609 12.251709,4.06689453 13.8898926,4.06689453 C15.3884277,4.06689453 16.5056152,4.95849609 16.5861816,6.20996094 L15.6140137,6.20996094 C15.4797363,5.41503906 14.8244629,4.94238281 13.857666,4.94238281 C12.826416,4.94238281 12.1442871,5.45800781 12.1442871,6.2421875 C12.1442871,6.84912109 12.5686035,7.19824219 13.6374512,7.47216797 L14.4484863,7.68701172 C16.0544434,8.08984375 16.6989746,8.71289062 16.6989746,9.8515625 C16.6989746,11.2749023 15.576416,12.1826172 13.8039551,12.1826172 C12.1604004,12.1826172 11.0270996,11.3125 10.9250488,9.97509766 Z M20.4963379,6.92431641 C19.5725098,6.92431641 18.9279785,7.60107422 18.8581543,8.62695312 L22.048584,8.62695312 C22.0270996,7.60107422 21.4147949,6.92431641 20.4963379,6.92431641 Z M22.0217285,10.5014648 L22.9455566,10.5014648 C22.677002,11.4897461 21.7746582,12.1020508 20.5070801,12.1020508 C18.901123,12.1020508 17.8967285,10.9418945 17.8967285,9.11035156 C17.8967285,7.28955078 18.9172363,6.10791016 20.5070801,6.10791016 C22.0700684,6.10791016 23.020752,7.21972656 23.020752,9.01904297 L23.020752,9.37353516 L18.8581543,9.37353516 L18.8581543,9.41650391 C18.9064941,10.5605469 19.5456543,11.2856445 20.5285645,11.2856445 C21.2751465,11.2856445 21.7800293,11.0117188 22.0217285,10.5014648 Z M24.4709473,12 L24.4709473,6.20996094 L25.3518066,6.20996094 L25.3518066,7.12304688 L25.4377441,7.12304688 C25.7277832,6.48388672 26.291748,6.10791016 27.1779785,6.10791016 C28.4777832,6.10791016 29.2028809,6.87597656 29.2028809,8.25097656 L29.2028809,12 L28.2790527,12 L28.2790527,8.4765625 C28.2790527,7.43457031 27.838623,6.94042969 26.9147949,6.94042969 C25.9909668,6.94042969 25.3947754,7.55810547 25.3947754,8.57324219 L25.3947754,12 L24.4709473,12 Z M32.6726074,11.2910156 C33.623291,11.2910156 34.3269043,10.6679688 34.3269043,9.84082031 L34.3269043,9.30908203 L32.7692871,9.41113281 C31.8884277,9.47021484 31.501709,9.77636719 31.501709,10.3564453 C31.501709,10.9472656 32.0012207,11.2910156 32.6726074,11.2910156 Z M32.5007324,12.1020508 C31.3781738,12.1020508 30.5456543,11.4360352 30.5456543,10.3779297 C30.5456543,9.34130859 31.3083496,8.74511719 32.6564941,8.66455078 L34.3269043,8.5625 L34.3269043,8.03613281 C34.3269043,7.32177734 33.8811035,6.9296875 33.0163574,6.9296875 C32.3234863,6.9296875 31.8400879,7.19287109 31.7111816,7.64941406 L30.7766113,7.64941406 C30.9001465,6.72021484 31.8132324,6.10791016 33.048584,6.10791016 C34.4611816,6.10791016 35.2507324,6.83300781 35.2507324,8.03613281 L35.2507324,12 L34.369873,12 L34.369873,11.1459961 L34.2839355,11.1459961 C33.907959,11.7636719 33.2741699,12.1020508 32.5007324,12.1020508 Z M37.345459,4.71142578 L38.2692871,4.71142578 L38.2692871,6.20996094 L39.5583496,6.20996094 L39.5583496,6.98339844 L38.2692871,6.98339844 L38.2692871,10.2597656 C38.2692871,10.9418945 38.5270996,11.2319336 39.1286621,11.2319336 C39.295166,11.2319336 39.3864746,11.2265625 39.5583496,11.2104492 L39.5583496,11.9892578 C39.3757324,12.0214844 39.1984863,12.0429688 39.0158691,12.0429688 C37.8234863,12.0429688 37.345459,11.6025391 37.345459,10.4960938 L37.345459,6.98339844 L36.4108887,6.98339844 L36.4108887,6.20996094 L37.345459,6.20996094 L37.345459,4.71142578 Z M43.2536621,12.1020508 C41.6047363,12.1020508 40.5842285,10.9633789 40.5842285,9.10498047 C40.5842285,7.24121094 41.6047363,6.10791016 43.2536621,6.10791016 C44.9025879,6.10791016 45.9230957,7.24121094 45.9230957,9.10498047 C45.9230957,10.9633789 44.9025879,12.1020508 43.2536621,12.1020508 Z M43.2536621,11.2695312 C44.3493652,11.2695312 44.967041,10.4746094 44.967041,9.10498047 C44.967041,7.72998047 44.3493652,6.94042969 43.2536621,6.94042969 C42.157959,6.94042969 41.5402832,7.72998047 41.5402832,9.10498047 C41.5402832,10.4746094 42.157959,11.2695312 43.2536621,11.2695312 Z M47.373291,12 L47.373291,6.20996094 L48.2541504,6.20996094 L48.2541504,7.06933594 L48.3400879,7.06933594 C48.5119629,6.50537109 49.1779785,6.10791016 49.9460449,6.10791016 C50.0964355,6.10791016 50.2897949,6.11865234 50.407959,6.13476562 L50.407959,7.05859375 C50.3327637,7.03710938 49.9997559,7.00488281 49.8171387,7.00488281 C48.9362793,7.00488281 48.2971191,7.59570312 48.2971191,8.41210938 L48.2971191,12 L47.373291,12 Z"
                          id="Senator" fill="#000000" opacity="0.560000002"></path>
                </g>
            </g>
        </g>
    </g>
</svg>