<?xml version="1.0" encoding="UTF-8"?>
<svg width="64px" height="16px" viewBox="0 0 64 16" version="1.1" xmlns="http://www.w3.org/2000/svg"
     xmlns:xlink="http://www.w3.org/1999/xlink">
    <!-- Generator: Sketch 52.6 (67491) - http://www.bohemiancoding.com/sketch -->
    <title>分组 8 copy 12</title>
    <desc>Created with Sketch.</desc>
    <defs>
        <linearGradient x1="0%" y1="100%" x2="98.5978143%" y2="8.46340269%" id="linearGradient-1">
            <stop stop-color="#919191" offset="0%"></stop>
            <stop stop-color="#3F3F3F" offset="100%"></stop>
        </linearGradient>
    </defs>
    <g id="页面-1" stroke="none" stroke-width="1" fill="none" fill-rule="evenodd">
        <g id="03-02投票选举2" transform="translate(-965.000000, -591.000000)">
            <g id="分组-8-copy-12" transform="translate(965.000000, 591.000000)">
                <path d="M0.5,15.5 L55,15.5 C59.6944204,15.5 63.5,11.6944204 63.5,7 L63.5,0.5 L9,0.5 C4.30557963,0.5 0.5,4.30557963 0.5,9 L0.5,15.5 Z"
                      id="矩形-copy-3" stroke="#FFFFFF" fill="url(#linearGradient-1)"
                      transform="translate(32.000000, 8.000000) scale(1, -1) translate(-32.000000, -8.000000) "></path>
                <path d="M18.954,13.056 L17.491,13.056 L17.271,12.264 L18.701,12.297 C18.976,12.297 19.119,12.132 19.119,11.802 L19.119,4.212 L11.881,4.212 L11.881,13.089 L11.089,13.089 L11.089,3.442 L19.911,3.442 L19.911,11.978 C19.911,12.693 19.592,13.056 18.954,13.056 Z M12.684,5.477 L18.327,5.477 L18.327,6.214 L12.684,6.214 L12.684,5.477 Z M13.3,7.402 L17.711,7.402 L17.711,10.944 L13.3,10.944 L13.3,7.402 Z M16.941,10.24 L16.941,8.117 L14.07,8.117 L14.07,10.24 L16.941,10.24 Z M26.159,2.991 L26.962,2.991 L26.962,4.322 L30.295,4.322 L30.295,5.081 L26.962,5.081 L26.962,6.599 L31.384,6.599 L31.384,7.369 L27.017,7.369 L27.017,10.691 L26.225,10.691 L26.225,7.369 L21.616,7.369 L21.616,6.599 L23.299,6.599 L23.299,3.849 L24.102,3.849 L24.102,6.599 L26.159,6.599 L26.159,2.991 Z M29.745,8.172 L30.471,8.557 C29.085,11.604 26.423,13.133 22.507,13.144 L22.221,12.385 C26.027,12.385 28.535,10.977 29.745,8.172 Z M24.256,7.864 L24.817,8.37 C24.157,9.393 23.354,10.284 22.386,11.043 L21.891,10.405 C22.826,9.679 23.618,8.832 24.256,7.864 Z M36.323,7.226 L33.199,7.226 L33.199,6.467 L41.394,6.467 C41.339,8.304 41.295,9.404 41.262,9.756 C41.218,10.35 41.108,10.746 40.91,10.955 C40.712,11.175 40.36,11.285 39.854,11.285 C39.535,11.285 39.15,11.285 38.688,11.307 L38.468,10.515 C38.864,10.515 39.26,10.526 39.667,10.526 C39.953,10.526 40.162,10.449 40.294,10.306 C40.426,10.152 40.514,9.789 40.547,9.217 C40.558,8.92 40.58,8.26 40.602,7.226 L37.126,7.226 L37.126,13.067 L36.323,13.067 L36.323,7.226 Z M32.715,4.091 L35.256,4.091 L35.256,3.024 L36.059,3.024 L36.059,4.091 L38.941,4.091 L38.941,3.024 L39.744,3.024 L39.744,4.091 L42.285,4.091 L42.285,4.861 L39.744,4.861 L39.744,5.906 L38.941,5.906 L38.941,4.861 L36.059,4.861 L36.059,5.895 L35.256,5.895 L35.256,4.861 L32.715,4.861 L32.715,4.091 Z M47.928,3.035 L48.709,3.035 L48.709,4.102 L52.977,4.102 L52.977,4.85 L48.709,4.85 L48.709,6.247 L52.218,6.247 L52.218,9.778 L44.936,9.778 L44.936,6.247 L47.928,6.247 L47.928,3.035 Z M51.426,9.041 L51.426,6.995 L45.728,6.995 L45.728,9.041 L51.426,9.041 Z M44.914,10.262 L45.585,10.581 C45.167,11.538 44.694,12.363 44.144,13.067 L43.495,12.594 C44.045,11.945 44.518,11.164 44.914,10.262 Z M47.312,10.581 C47.532,11.307 47.73,12.099 47.906,12.946 L47.114,13.122 C46.96,12.22 46.784,11.428 46.575,10.735 L47.312,10.581 Z M49.611,10.471 C49.941,11.219 50.227,12.044 50.469,12.924 L49.688,13.1 C49.468,12.165 49.193,11.34 48.863,10.625 L49.611,10.471 Z M51.866,10.251 C52.57,11.175 53.098,11.978 53.472,12.66 L52.812,13.122 C52.427,12.374 51.899,11.56 51.228,10.658 L51.866,10.251 Z"
                      id="同步节点" fill="#FFFFFF"></path>
            </g>
        </g>
    </g>
</svg>