<?xml version="1.0" encoding="UTF-8"?>
<svg width="42px" height="16px" viewBox="0 0 42 16" version="1.1" xmlns="http://www.w3.org/2000/svg"
     xmlns:xlink="http://www.w3.org/1999/xlink">
    <!-- Generator: Sketch 52.6 (67491) - http://www.bohemiancoding.com/sketch -->
    <title>信托</title>
    <desc>Created with Sketch.</desc>
    <defs>
        <linearGradient x1="0%" y1="100%" x2="100%" y2="0%" id="linearGradient-1">
            <stop stop-color="#FFEE9B" offset="0%"></stop>
            <stop stop-color="#F8D36D" offset="100%"></stop>
        </linearGradient>
    </defs>
    <g id="页面-1" stroke="none" stroke-width="1" fill="none" fill-rule="evenodd">
        <g id="03-02投票选举2" transform="translate(-17.000000, -219.000000)">
            <g id="分组-4" transform="translate(17.000000, 219.000000)">
                <g id="信托">
                    <path d="M0.5,15.5 L33,15.5 C37.6944204,15.5 41.5,11.6944204 41.5,7 L41.5,0.5 L9,0.5 C4.30557963,0.5 0.5,4.30557963 0.5,9 L0.5,15.5 Z"
                          id="矩形" stroke="#FFFFFF" fill="url(#linearGradient-1)"
                          transform="translate(21.000000, 8.000000) scale(1, -1) translate(-21.000000, -8.000000) "></path>
                    <path d="M11.694,6.94 C11.364,7.424 11.001,7.897 10.605,8.337 L10.352,7.49 C11.43,6.159 12.211,4.63 12.706,2.914 L13.443,3.255 C13.179,4.102 12.86,4.894 12.475,5.642 L12.475,13.122 L11.694,13.122 L11.694,6.94 Z M13.399,4.465 L16.787,4.465 C16.622,4.025 16.435,3.607 16.215,3.189 L16.974,2.98 C17.205,3.464 17.381,3.904 17.513,4.311 L17.095,4.465 L20.56,4.465 L20.56,5.213 L13.399,5.213 L13.399,4.465 Z M14.411,6.104 L19.614,6.104 L19.614,6.819 L14.411,6.819 L14.411,6.104 Z M14.411,7.655 L19.614,7.655 L19.614,8.381 L14.411,8.381 L14.411,7.655 Z M19.812,9.283 L19.812,13.1 L19.042,13.1 L19.042,12.506 L14.972,12.506 L14.972,13.1 L14.202,13.1 L14.202,9.283 L19.812,9.283 Z M14.972,11.758 L19.042,11.758 L19.042,10.02 L14.972,10.02 L14.972,11.758 Z M31.274,7.105 L31.395,7.875 L27.996,8.337 L27.996,11.67 C27.996,11.967 28.15,12.121 28.469,12.121 L30.064,12.121 C30.284,12.121 30.449,12.033 30.548,11.868 C30.658,11.67 30.735,11.076 30.779,10.086 L31.527,10.328 C31.461,11.538 31.318,12.275 31.098,12.539 C30.9,12.759 30.603,12.88 30.207,12.88 L28.227,12.88 C27.545,12.88 27.204,12.528 27.204,11.835 L27.204,8.447 L25.433,8.689 L25.312,7.93 L27.204,7.666 L27.204,4.85 C26.687,4.927 26.17,4.982 25.653,5.026 L25.411,4.322 C27.424,4.146 29.107,3.761 30.471,3.178 L30.845,3.838 C29.943,4.212 28.997,4.509 27.996,4.707 L27.996,7.556 L31.274,7.105 Z M22.925,13.001 L21.759,13.001 L21.594,12.231 C21.968,12.253 22.32,12.275 22.65,12.275 C22.936,12.275 23.079,12.143 23.079,11.89 L23.079,9.129 C22.606,9.283 22.122,9.415 21.638,9.547 L21.44,8.799 C21.99,8.678 22.54,8.535 23.079,8.359 L23.079,5.884 L21.55,5.884 L21.55,5.125 L23.079,5.125 L23.079,3.057 L23.882,3.057 L23.882,5.125 L24.982,5.125 L24.982,5.884 L23.882,5.884 L23.882,8.084 C24.234,7.941 24.586,7.787 24.927,7.633 L24.927,8.425 C24.586,8.579 24.234,8.722 23.882,8.854 L23.882,12.088 C23.882,12.693 23.563,13.001 22.925,13.001 Z"
                          fill="#000000" opacity="0.560000002"></path>
                </g>
            </g>
        </g>
    </g>
</svg>