<?xml version="1.0" encoding="UTF-8"?>
<svg width="59px" height="16px" viewBox="0 0 59 16" version="1.1" xmlns="http://www.w3.org/2000/svg"
     xmlns:xlink="http://www.w3.org/1999/xlink">
    <!-- Generator: Sketch 52.6 (67491) - http://www.bohemiancoding.com/sketch -->
    <title>分组 7 copy 6</title>
    <desc>Created with Sketch.</desc>
    <defs>
        <linearGradient x1="0%" y1="100%" x2="100%" y2="0%" id="linearGradient-1">
            <stop stop-color="#FFEE9B" offset="0%"></stop>
            <stop stop-color="#F8D36D" offset="100%"></stop>
        </linearGradient>
    </defs>
    <g id="页面-1" stroke="none" stroke-width="1" fill="none" fill-rule="evenodd">
        <g id="03-01投票选举" transform="translate(-17.000000, -219.000000)">
            <g id="分组-4" transform="translate(17.000000, 219.000000)">
                <g id="分组-7-copy-6">
                    <path d="M0.5,15.5 L50,15.5 C54.6944204,15.5 58.5,11.6944204 58.5,7 L58.5,0.5 L9,0.5 C4.30557963,0.5 0.5,4.30557963 0.5,9 L0.5,15.5 Z"
                          id="矩形" stroke="#FFFFFF" fill="url(#linearGradient-1)"
                          transform="translate(29.500000, 8.000000) scale(1, -1) translate(-29.500000, -8.000000) "></path>
                    <path d="M13.9855957,12 L13.0187988,12 L13.0187988,5.11962891 L10.5212402,5.11962891 L10.5212402,4.24951172 L16.4831543,4.24951172 L16.4831543,5.11962891 L13.9855957,5.11962891 L13.9855957,12 Z M17.0524902,12 L17.0524902,6.20996094 L17.9333496,6.20996094 L17.9333496,7.06933594 L18.0192871,7.06933594 C18.1911621,6.50537109 18.8571777,6.10791016 19.6252441,6.10791016 C19.7756348,6.10791016 19.9689941,6.11865234 20.0871582,6.13476562 L20.0871582,7.05859375 C20.0119629,7.03710938 19.6789551,7.00488281 19.4963379,7.00488281 C18.6154785,7.00488281 17.9763184,7.59570312 17.9763184,8.41210938 L17.9763184,12 L17.0524902,12 Z M25.9255371,6.20996094 L25.9255371,12 L25.0446777,12 L25.0446777,11.0922852 L24.9587402,11.0922852 C24.6687012,11.7368164 24.0510254,12.1020508 23.1647949,12.1020508 C21.8649902,12.1020508 21.1882324,11.3286133 21.1882324,9.95898438 L21.1882324,6.20996094 L22.1120605,6.20996094 L22.1120605,9.73339844 C22.1120605,10.7753906 22.4987793,11.2587891 23.4226074,11.2587891 C24.4431152,11.2587891 25.001709,10.6518555 25.001709,9.63671875 L25.001709,6.20996094 L25.9255371,6.20996094 Z M27.5314941,7.79443359 C27.5314941,6.83300781 28.4606934,6.10791016 29.6906738,6.10791016 C30.904541,6.10791016 31.7478027,6.70947266 31.8713379,7.66015625 L30.958252,7.66015625 C30.8347168,7.19824219 30.3835449,6.89208984 29.6853027,6.89208984 C28.9978027,6.89208984 28.4606934,7.24121094 28.4606934,7.75683594 C28.4606934,8.15429688 28.782959,8.40136719 29.4650879,8.56787109 L30.3566895,8.78271484 C31.4470215,9.04589844 31.9733887,9.51855469 31.9733887,10.3510742 C31.9733887,11.3876953 30.9689941,12.1020508 29.6530762,12.1020508 C28.3640137,12.1020508 27.4777832,11.484375 27.3757324,10.5229492 L28.326416,10.5229492 C28.4821777,11.0117188 28.9440918,11.3232422 29.6853027,11.3232422 C30.4641113,11.3232422 31.0227051,10.9526367 31.0227051,10.4208984 C31.0227051,10.0234375 30.7219238,9.75488281 30.104248,9.60449219 L29.1105957,9.36279297 C28.0256348,9.09960938 27.5314941,8.63232422 27.5314941,7.79443359 Z M33.7565918,4.71142578 L34.6804199,4.71142578 L34.6804199,6.20996094 L35.9694824,6.20996094 L35.9694824,6.98339844 L34.6804199,6.98339844 L34.6804199,10.2597656 C34.6804199,10.9418945 34.9382324,11.2319336 35.5397949,11.2319336 C35.7062988,11.2319336 35.7976074,11.2265625 35.9694824,11.2104492 L35.9694824,11.9892578 C35.7868652,12.0214844 35.6096191,12.0429688 35.427002,12.0429688 C34.2346191,12.0429688 33.7565918,11.6025391 33.7565918,10.4960938 L33.7565918,6.98339844 L32.8220215,6.98339844 L32.8220215,6.20996094 L33.7565918,6.20996094 L33.7565918,4.71142578 Z M39.5949707,6.92431641 C38.6711426,6.92431641 38.0266113,7.60107422 37.9567871,8.62695312 L41.1472168,8.62695312 C41.1257324,7.60107422 40.5134277,6.92431641 39.5949707,6.92431641 Z M41.1203613,10.5014648 L42.0441895,10.5014648 C41.7756348,11.4897461 40.873291,12.1020508 39.6057129,12.1020508 C37.9997559,12.1020508 36.9953613,10.9418945 36.9953613,9.11035156 C36.9953613,7.28955078 38.0158691,6.10791016 39.6057129,6.10791016 C41.1687012,6.10791016 42.1193848,7.21972656 42.1193848,9.01904297 L42.1193848,9.37353516 L37.9567871,9.37353516 L37.9567871,9.41650391 C38.005127,10.5605469 38.6442871,11.2856445 39.6271973,11.2856445 C40.3737793,11.2856445 40.8786621,11.0117188 41.1203613,10.5014648 Z M45.8791504,6.92431641 C44.9553223,6.92431641 44.310791,7.60107422 44.2409668,8.62695312 L47.4313965,8.62695312 C47.4099121,7.60107422 46.7976074,6.92431641 45.8791504,6.92431641 Z M47.404541,10.5014648 L48.3283691,10.5014648 C48.0598145,11.4897461 47.1574707,12.1020508 45.8898926,12.1020508 C44.2839355,12.1020508 43.279541,10.9418945 43.279541,9.11035156 C43.279541,7.28955078 44.3000488,6.10791016 45.8898926,6.10791016 C47.4528809,6.10791016 48.4035645,7.21972656 48.4035645,9.01904297 L48.4035645,9.37353516 L44.2409668,9.37353516 L44.2409668,9.41650391 C44.2893066,10.5605469 44.9284668,11.2856445 45.911377,11.2856445 C46.657959,11.2856445 47.1628418,11.0117188 47.404541,10.5014648 Z"
                          id="Trustee" fill="#000000" opacity="0.560000002"></path>
                </g>
            </g>
        </g>
    </g>
</svg>