<?xml version="1.0" encoding="UTF-8"?>
<svg width="64px" height="16px" viewBox="0 0 64 16" version="1.1" xmlns="http://www.w3.org/2000/svg"
     xmlns:xlink="http://www.w3.org/1999/xlink">
    <!-- Generator: Sketch 52.6 (67491) - http://www.bohemiancoding.com/sketch -->
    <title>验证节点</title>
    <desc>Created with Sketch.</desc>
    <defs>
        <linearGradient x1="0%" y1="100%" x2="100%" y2="7.16163644%" id="linearGradient-1">
            <stop stop-color="#9CF9DD" offset="0%"></stop>
            <stop stop-color="#58D4AE" offset="100%"></stop>
        </linearGradient>
    </defs>
    <g id="页面-1" stroke="none" stroke-width="1" fill="none" fill-rule="evenodd">
        <g id="03-02投票选举2" transform="translate(-89.000000, -219.000000)">
            <g id="分组-4" transform="translate(17.000000, 219.000000)">
                <g id="验证节点" transform="translate(72.000000, 0.000000)">
                    <path d="M0.5,15.5 L55,15.5 C59.6944204,15.5 63.5,11.6944204 63.5,7 L63.5,0.5 L9,0.5 C4.30557963,0.5 0.5,4.30557963 0.5,9 L0.5,15.5 Z"
                          id="矩形-copy-3" stroke="#FFFFFF" fill="url(#linearGradient-1)"
                          transform="translate(32.000000, 8.000000) scale(1, -1) translate(-32.000000, -8.000000) "></path>
                    <path d="M15.863,6.247 C15.467,6.687 15.049,7.083 14.609,7.424 L14.191,6.786 C15.423,5.829 16.38,4.586 17.04,3.057 L17.766,3.057 C18.316,4.465 19.284,5.686 20.648,6.742 L20.219,7.402 C19.746,7.039 19.328,6.654 18.954,6.247 L18.954,6.929 L15.863,6.929 L15.863,6.247 Z M18.921,6.203 C18.283,5.477 17.777,4.685 17.403,3.827 C16.963,4.751 16.468,5.543 15.896,6.203 L18.921,6.203 Z M14.51,11.956 L18.085,11.956 C18.503,10.79 18.877,9.338 19.207,7.611 L19.966,7.798 C19.658,9.36 19.295,10.746 18.855,11.956 L20.516,11.956 L20.516,12.715 L14.51,12.715 L14.51,11.956 Z M15.522,7.93 C15.874,8.843 16.182,9.899 16.468,11.087 L15.786,11.252 C15.544,10.174 15.225,9.151 14.84,8.161 L15.522,7.93 Z M17.216,7.611 C17.513,8.48 17.777,9.481 18.019,10.614 L17.326,10.779 C17.128,9.756 16.864,8.766 16.534,7.82 L17.216,7.611 Z M13.278,4.245 L10.616,4.245 L10.616,3.519 L14.07,3.519 L13.542,8.051 L14.224,8.051 C14.224,10.559 14.114,12 13.905,12.385 C13.685,12.759 13.234,12.957 12.541,12.957 C12.288,12.957 12.024,12.946 11.76,12.924 L11.551,12.22 C11.936,12.264 12.211,12.286 12.365,12.286 C12.893,12.286 13.212,12.11 13.322,11.78 C13.432,11.428 13.498,10.427 13.498,8.755 L10.693,8.755 L11.21,4.982 L11.936,5.026 L11.496,8.051 L12.794,8.051 L13.278,4.245 Z M12.871,9.734 L12.871,10.449 C12.145,10.724 11.331,10.944 10.418,11.12 L10.319,10.372 C11.287,10.207 12.145,9.998 12.871,9.734 Z M28.304,4.311 L25.213,4.311 L25.213,3.53 L31.384,3.53 L31.384,4.311 L29.107,4.311 L29.107,7.402 L31.23,7.402 L31.23,8.139 L29.107,8.139 L29.107,11.945 L31.604,11.945 L31.604,12.726 L24.872,12.726 L24.872,11.945 L25.994,11.945 L25.994,6.126 L26.764,6.126 L26.764,11.945 L28.304,11.945 L28.304,4.311 Z M22.826,3.123 C23.541,3.695 24.146,4.256 24.641,4.817 L24.102,5.367 C23.651,4.817 23.046,4.245 22.276,3.64 L22.826,3.123 Z M21.484,6.379 L23.838,6.379 L23.838,11.131 C24.19,10.823 24.564,10.471 24.971,10.075 L25.18,10.922 C24.542,11.538 23.871,12.099 23.156,12.594 L22.848,11.879 C23.002,11.747 23.079,11.593 23.079,11.417 L23.079,7.138 L21.484,7.138 L21.484,6.379 Z M36.323,7.226 L33.199,7.226 L33.199,6.467 L41.394,6.467 C41.339,8.304 41.295,9.404 41.262,9.756 C41.218,10.35 41.108,10.746 40.91,10.955 C40.712,11.175 40.36,11.285 39.854,11.285 C39.535,11.285 39.15,11.285 38.688,11.307 L38.468,10.515 C38.864,10.515 39.26,10.526 39.667,10.526 C39.953,10.526 40.162,10.449 40.294,10.306 C40.426,10.152 40.514,9.789 40.547,9.217 C40.558,8.92 40.58,8.26 40.602,7.226 L37.126,7.226 L37.126,13.067 L36.323,13.067 L36.323,7.226 Z M32.715,4.091 L35.256,4.091 L35.256,3.024 L36.059,3.024 L36.059,4.091 L38.941,4.091 L38.941,3.024 L39.744,3.024 L39.744,4.091 L42.285,4.091 L42.285,4.861 L39.744,4.861 L39.744,5.906 L38.941,5.906 L38.941,4.861 L36.059,4.861 L36.059,5.895 L35.256,5.895 L35.256,4.861 L32.715,4.861 L32.715,4.091 Z M47.928,3.035 L48.709,3.035 L48.709,4.102 L52.977,4.102 L52.977,4.85 L48.709,4.85 L48.709,6.247 L52.218,6.247 L52.218,9.778 L44.936,9.778 L44.936,6.247 L47.928,6.247 L47.928,3.035 Z M51.426,9.041 L51.426,6.995 L45.728,6.995 L45.728,9.041 L51.426,9.041 Z M44.914,10.262 L45.585,10.581 C45.167,11.538 44.694,12.363 44.144,13.067 L43.495,12.594 C44.045,11.945 44.518,11.164 44.914,10.262 Z M47.312,10.581 C47.532,11.307 47.73,12.099 47.906,12.946 L47.114,13.122 C46.96,12.22 46.784,11.428 46.575,10.735 L47.312,10.581 Z M49.611,10.471 C49.941,11.219 50.227,12.044 50.469,12.924 L49.688,13.1 C49.468,12.165 49.193,11.34 48.863,10.625 L49.611,10.471 Z M51.866,10.251 C52.57,11.175 53.098,11.978 53.472,12.66 L52.812,13.122 C52.427,12.374 51.899,11.56 51.228,10.658 L51.866,10.251 Z"
                          fill="#000000" opacity="0.560000002"></path>
                </g>
            </g>
        </g>
    </g>
</svg>