<?xml version="1.0" encoding="UTF-8"?>
<svg width="66px" height="16px" viewBox="0 0 66 16" version="1.1" xmlns="http://www.w3.org/2000/svg"
     xmlns:xlink="http://www.w3.org/1999/xlink">
    <!-- Generator: Sketch 52.6 (67491) - http://www.bohemiancoding.com/sketch -->
    <title>分组 8 copy 10</title>
    <desc>Created with Sketch.</desc>
    <defs>
        <linearGradient x1="0%" y1="100%" x2="100%" y2="7.16163644%" id="linearGradient-1">
            <stop stop-color="#9CF9DD" offset="0%"></stop>
            <stop stop-color="#58D4AE" offset="100%"></stop>
        </linearGradient>
    </defs>
    <g id="页面-1" stroke="none" stroke-width="1" fill="none" fill-rule="evenodd">
        <g id="03-01投票选举" transform="translate(-125.000000, -219.000000)">
            <g id="分组-4" transform="translate(17.000000, 219.000000)">
                <g id="分组-8-copy-10" transform="translate(108.000000, 0.000000)">
                    <path d="M0.5,15.5 L57,15.5 C61.6944204,15.5 65.5,11.6944204 65.5,7 L65.5,0.5 L9,0.5 C4.30557963,0.5 0.5,4.30557963 0.5,9 L0.5,15.5 Z"
                          id="矩形-copy-3" stroke="#FFFFFF" fill="url(#linearGradient-1)"
                          transform="translate(33.000000, 8.000000) scale(1, -1) translate(-33.000000, -8.000000) "></path>
                    <path d="M14.2575684,12 L13.3015137,12 L10.4440918,4.24951172 L11.4592285,4.24951172 L13.7365723,10.7485352 L13.8225098,10.7485352 L16.0998535,4.24951172 L17.1149902,4.24951172 L14.2575684,12 Z M19.6018066,11.2910156 C20.5524902,11.2910156 21.2561035,10.6679688 21.2561035,9.84082031 L21.2561035,9.30908203 L19.6984863,9.41113281 C18.817627,9.47021484 18.4309082,9.77636719 18.4309082,10.3564453 C18.4309082,10.9472656 18.9304199,11.2910156 19.6018066,11.2910156 Z M19.4299316,12.1020508 C18.307373,12.1020508 17.4748535,11.4360352 17.4748535,10.3779297 C17.4748535,9.34130859 18.2375488,8.74511719 19.5856934,8.66455078 L21.2561035,8.5625 L21.2561035,8.03613281 C21.2561035,7.32177734 20.8103027,6.9296875 19.9455566,6.9296875 C19.2526855,6.9296875 18.7692871,7.19287109 18.6403809,7.64941406 L17.7058105,7.64941406 C17.8293457,6.72021484 18.7424316,6.10791016 19.9777832,6.10791016 C21.3903809,6.10791016 22.1799316,6.83300781 22.1799316,8.03613281 L22.1799316,12 L21.2990723,12 L21.2990723,11.1459961 L21.2131348,11.1459961 C20.8371582,11.7636719 20.2033691,12.1020508 19.4299316,12.1020508 Z M23.9416504,12 L23.9416504,3.91113281 L24.8654785,3.91113281 L24.8654785,12 L23.9416504,12 Z M26.6809082,12 L26.6809082,6.20996094 L27.6047363,6.20996094 L27.6047363,12 L26.6809082,12 Z M27.1428223,5.09277344 C26.7883301,5.09277344 26.498291,4.80273438 26.498291,4.44824219 C26.498291,4.09375 26.7883301,3.80371094 27.1428223,3.80371094 C27.4973145,3.80371094 27.7873535,4.09375 27.7873535,4.44824219 C27.7873535,4.80273438 27.4973145,5.09277344 27.1428223,5.09277344 Z M31.5095215,12.1020508 C30.0270996,12.1020508 29.076416,10.9257812 29.076416,9.10498047 C29.076416,7.28955078 30.0378418,6.10791016 31.5095215,6.10791016 C32.3151855,6.10791016 32.9973145,6.48925781 33.3249512,7.12304688 L33.4055176,7.12304688 L33.4055176,3.91113281 L34.3293457,3.91113281 L34.3293457,12 L33.4484863,12 L33.4484863,11.0761719 L33.3625488,11.0761719 C32.9973145,11.7207031 32.3098145,12.1020508 31.5095215,12.1020508 Z M31.7243652,6.94042969 C30.6716309,6.94042969 30.0324707,7.75683594 30.0324707,9.10498047 C30.0324707,10.4584961 30.6662598,11.2695312 31.7243652,11.2695312 C32.7770996,11.2695312 33.427002,10.4423828 33.427002,9.10498047 C33.427002,7.77832031 32.7717285,6.94042969 31.7243652,6.94042969 Z M37.9064941,11.2910156 C38.8571777,11.2910156 39.560791,10.6679688 39.560791,9.84082031 L39.560791,9.30908203 L38.0031738,9.41113281 C37.1223145,9.47021484 36.7355957,9.77636719 36.7355957,10.3564453 C36.7355957,10.9472656 37.2351074,11.2910156 37.9064941,11.2910156 Z M37.7346191,12.1020508 C36.6120605,12.1020508 35.779541,11.4360352 35.779541,10.3779297 C35.779541,9.34130859 36.5422363,8.74511719 37.8903809,8.66455078 L39.560791,8.5625 L39.560791,8.03613281 C39.560791,7.32177734 39.1149902,6.9296875 38.2502441,6.9296875 C37.557373,6.9296875 37.0739746,7.19287109 36.9450684,7.64941406 L36.010498,7.64941406 C36.1340332,6.72021484 37.0471191,6.10791016 38.2824707,6.10791016 C39.6950684,6.10791016 40.4846191,6.83300781 40.4846191,8.03613281 L40.4846191,12 L39.6037598,12 L39.6037598,11.1459961 L39.5178223,11.1459961 C39.1418457,11.7636719 38.5080566,12.1020508 37.7346191,12.1020508 Z M42.5793457,4.71142578 L43.5031738,4.71142578 L43.5031738,6.20996094 L44.7922363,6.20996094 L44.7922363,6.98339844 L43.5031738,6.98339844 L43.5031738,10.2597656 C43.5031738,10.9418945 43.7609863,11.2319336 44.3625488,11.2319336 C44.5290527,11.2319336 44.6203613,11.2265625 44.7922363,11.2104492 L44.7922363,11.9892578 C44.6096191,12.0214844 44.432373,12.0429688 44.2497559,12.0429688 C43.057373,12.0429688 42.5793457,11.6025391 42.5793457,10.4960938 L42.5793457,6.98339844 L41.6447754,6.98339844 L41.6447754,6.20996094 L42.5793457,6.20996094 L42.5793457,4.71142578 Z M48.4875488,12.1020508 C46.838623,12.1020508 45.8181152,10.9633789 45.8181152,9.10498047 C45.8181152,7.24121094 46.838623,6.10791016 48.4875488,6.10791016 C50.1364746,6.10791016 51.1569824,7.24121094 51.1569824,9.10498047 C51.1569824,10.9633789 50.1364746,12.1020508 48.4875488,12.1020508 Z M48.4875488,11.2695312 C49.583252,11.2695312 50.2009277,10.4746094 50.2009277,9.10498047 C50.2009277,7.72998047 49.583252,6.94042969 48.4875488,6.94042969 C47.3918457,6.94042969 46.7741699,7.72998047 46.7741699,9.10498047 C46.7741699,10.4746094 47.3918457,11.2695312 48.4875488,11.2695312 Z M52.6071777,12 L52.6071777,6.20996094 L53.4880371,6.20996094 L53.4880371,7.06933594 L53.5739746,7.06933594 C53.7458496,6.50537109 54.4118652,6.10791016 55.1799316,6.10791016 C55.3303223,6.10791016 55.5236816,6.11865234 55.6418457,6.13476562 L55.6418457,7.05859375 C55.5666504,7.03710938 55.2336426,7.00488281 55.0510254,7.00488281 C54.170166,7.00488281 53.5310059,7.59570312 53.5310059,8.41210938 L53.5310059,12 L52.6071777,12 Z"
                          id="Validator" fill="#000000" opacity="0.560000002"></path>
                </g>
            </g>
        </g>
    </g>
</svg>